<?xml version="1.0" encoding="UTF-8"?>
<!--Generator: Apple Native CoreSVG 341-->
<!DOCTYPE svg
PUBLIC "-//W3C//DTD SVG 1.1//EN"
       "http://www.w3.org/Graphics/SVG/1.1/DTD/svg11.dtd">
<svg version="1.1" xmlns="http://www.w3.org/2000/svg" xmlns:xlink="http://www.w3.org/1999/xlink" viewBox="0 0 3300 2200">
 <!--glyph: "1020EC", point size: 100.0, font version: "20.0d10e1", template writer version: "138.0.0"-->
 <style>.monochrome-0 {-sfsymbols-motion-group:1;-sfsymbols-layer-tags:book.pages.fill}
.monochrome-1 {opacity:0.0;-sfsymbols-clear-behind:true;-sfsymbols-motion-group:0;-sfsymbols-layer-tags:book.pages.fill}
.monochrome-2 {-sfsymbols-motion-group:0;-sfsymbols-layer-tags:book.pages.fill}
.monochrome-3 {opacity:0.0;-sfsymbols-clear-behind:true;-sfsymbols-motion-group:0;-sfsymbols-layer-tags:book.pages.fill}

.multicolor-0:tintColor {-sfsymbols-motion-group:1;-sfsymbols-layer-tags:book.pages.fill}
.multicolor-1:tintColor {opacity:0.0;-sfsymbols-clear-behind:true;-sfsymbols-motion-group:0;-sfsymbols-layer-tags:book.pages.fill}
.multicolor-2:tintColor {-sfsymbols-motion-group:0;-sfsymbols-layer-tags:book.pages.fill}
.multicolor-3:tintColor {opacity:0.0;-sfsymbols-clear-behind:true;-sfsymbols-motion-group:0;-sfsymbols-layer-tags:book.pages.fill}

.hierarchical-0:secondary {-sfsymbols-motion-group:1;-sfsymbols-layer-tags:book.pages.fill}
.hierarchical-1:primary {opacity:0.0;-sfsymbols-clear-behind:true;-sfsymbols-motion-group:0;-sfsymbols-layer-tags:book.pages.fill}
.hierarchical-2:primary {-sfsymbols-motion-group:0;-sfsymbols-layer-tags:book.pages.fill}
.hierarchical-3:primary {opacity:0.0;-sfsymbols-clear-behind:true;-sfsymbols-motion-group:0;-sfsymbols-layer-tags:book.pages.fill}

.SFSymbolsPreviewWireframe {fill:none;opacity:1.0;stroke:black;stroke-width:0.5}
</style>
 <g id="Notes">
  <rect height="2200" id="artboard" style="fill:white;opacity:1" width="3300" x="0" y="0"/>
  <line style="fill:none;stroke:black;opacity:1;stroke-width:0.5;" x1="263" x2="3036" y1="292" y2="292"/>
  <text style="stroke:none;fill:black;font-family:sans-serif;font-size:13;font-weight:bold;" transform="matrix(1 0 0 1 263 322)">Weight/Scale Variations</text>
  <text style="stroke:none;fill:black;font-family:sans-serif;font-size:13;text-anchor:middle;" transform="matrix(1 0 0 1 559.711 322)">Ultralight</text>
  <text style="stroke:none;fill:black;font-family:sans-serif;font-size:13;text-anchor:middle;" transform="matrix(1 0 0 1 856.422 322)">Thin</text>
  <text style="stroke:none;fill:black;font-family:sans-serif;font-size:13;text-anchor:middle;" transform="matrix(1 0 0 1 1153.13 322)">Light</text>
  <text style="stroke:none;fill:black;font-family:sans-serif;font-size:13;text-anchor:middle;" transform="matrix(1 0 0 1 1449.84 322)">Regular</text>
  <text style="stroke:none;fill:black;font-family:sans-serif;font-size:13;text-anchor:middle;" transform="matrix(1 0 0 1 1746.56 322)">Medium</text>
  <text style="stroke:none;fill:black;font-family:sans-serif;font-size:13;text-anchor:middle;" transform="matrix(1 0 0 1 2043.27 322)">Semibold</text>
  <text style="stroke:none;fill:black;font-family:sans-serif;font-size:13;text-anchor:middle;" transform="matrix(1 0 0 1 2339.98 322)">Bold</text>
  <text style="stroke:none;fill:black;font-family:sans-serif;font-size:13;text-anchor:middle;" transform="matrix(1 0 0 1 2636.69 322)">Heavy</text>
  <text style="stroke:none;fill:black;font-family:sans-serif;font-size:13;text-anchor:middle;" transform="matrix(1 0 0 1 2933.4 322)">Black</text>
  <line style="fill:none;stroke:black;opacity:1;stroke-width:0.5;" x1="263" x2="3036" y1="1903" y2="1903"/>
  <g transform="matrix(0.2 0 0 0.2 263 1933)">
   <path d="m46.2402 4.15039c21.7773 0 39.4531-17.627 39.4531-39.4043s-17.6758-39.4043-39.4531-39.4043c-21.7285 0-39.4043 17.627-39.4043 39.4043s17.6758 39.4043 39.4043 39.4043Zm0-7.42188c-17.6758 0-31.9336-14.3066-31.9336-31.9824s14.2578-31.9824 31.9336-31.9824 31.9824 14.3066 31.9824 31.9824-14.3066 31.9824-31.9824 31.9824Zm-17.9688-31.9824c0 2.14844 1.51367 3.61328 3.75977 3.61328h10.498v10.5957c0 2.19727 1.46484 3.71094 3.61328 3.71094 2.24609 0 3.71094-1.51367 3.71094-3.71094v-10.5957h10.5957c2.19727 0 3.71094-1.46484 3.71094-3.61328 0-2.19727-1.51367-3.71094-3.71094-3.71094h-10.5957v-10.5469c0-2.24609-1.46484-3.75977-3.71094-3.75977-2.14844 0-3.61328 1.51367-3.61328 3.75977v10.5469h-10.498c-2.24609 0-3.75977 1.51367-3.75977 3.71094Z"/>
  </g>
  <g transform="matrix(0.2 0 0 0.2 281.506 1933)">
   <path d="m58.5449 14.5508c27.4902 0 49.8047-22.3145 49.8047-49.8047s-22.3145-49.8047-49.8047-49.8047-49.8047 22.3145-49.8047 49.8047 22.3145 49.8047 49.8047 49.8047Zm0-8.30078c-22.9492 0-41.5039-18.5547-41.5039-41.5039s18.5547-41.5039 41.5039-41.5039 41.5039 18.5547 41.5039 41.5039-18.5547 41.5039-41.5039 41.5039Zm-22.6562-41.5039c0 2.39258 1.66016 4.00391 4.15039 4.00391h14.3555v14.4043c0 2.44141 1.66016 4.15039 4.05273 4.15039 2.44141 0 4.15039-1.66016 4.15039-4.15039v-14.4043h14.4043c2.44141 0 4.15039-1.61133 4.15039-4.00391 0-2.44141-1.70898-4.15039-4.15039-4.15039h-14.4043v-14.3555c0-2.49023-1.70898-4.19922-4.15039-4.19922-2.39258 0-4.05273 1.70898-4.05273 4.19922v14.3555h-14.3555c-2.49023 0-4.15039 1.70898-4.15039 4.15039Z"/>
  </g>
  <g transform="matrix(0.2 0 0 0.2 304.924 1933)">
   <path d="m74.8535 28.3203c35.1074 0 63.623-28.4668 63.623-63.5742s-28.5156-63.623-63.623-63.623-63.5742 28.5156-63.5742 63.623 28.4668 63.5742 63.5742 63.5742Zm0-9.08203c-30.127 0-54.4922-24.3652-54.4922-54.4922s24.3652-54.4922 54.4922-54.4922 54.4922 24.3652 54.4922 54.4922-24.3652 54.4922-54.4922 54.4922Zm-28.8574-54.4922c0 2.58789 1.85547 4.39453 4.58984 4.39453h19.7266v19.7754c0 2.68555 1.85547 4.58984 4.44336 4.58984 2.68555 0 4.54102-1.85547 4.54102-4.58984v-19.7754h19.7754c2.68555 0 4.58984-1.80664 4.58984-4.39453 0-2.73438-1.85547-4.58984-4.58984-4.58984h-19.7754v-19.7266c0-2.73438-1.85547-4.63867-4.54102-4.63867-2.58789 0-4.44336 1.9043-4.44336 4.63867v19.7266h-19.7266c-2.73438 0-4.58984 1.85547-4.58984 4.58984Z"/>
  </g>
  <text style="stroke:none;fill:black;font-family:sans-serif;font-size:13;font-weight:bold;" transform="matrix(1 0 0 1 263 1953)">Design Variations</text>
  <text style="stroke:none;fill:black;font-family:sans-serif;font-size:13;" transform="matrix(1 0 0 1 263 1971)">Symbols are supported in up to nine weights and three scales.</text>
  <text style="stroke:none;fill:black;font-family:sans-serif;font-size:13;" transform="matrix(1 0 0 1 263 1989)">For optimal layout with text and other symbols, vertically align</text>
  <text style="stroke:none;fill:black;font-family:sans-serif;font-size:13;" transform="matrix(1 0 0 1 263 2007)">symbols with the adjacent text.</text>
  <line style="fill:none;stroke:#00AEEF;stroke-width:0.5;opacity:1.0;" x1="776" x2="776" y1="1919" y2="1933"/>
  <g transform="matrix(0.2 0 0 0.2 776 1933)">
   <path d="m16.5527 0.78125c2.58789 0 3.85742-0.976562 4.78516-3.71094l6.29883-17.2363h28.8086l6.29883 17.2363c0.927734 2.73438 2.19727 3.71094 4.73633 3.71094 2.58789 0 4.24805-1.5625 4.24805-4.00391 0-0.830078-0.146484-1.61133-0.537109-2.63672l-22.9004-60.9863c-1.12305-2.97852-3.125-4.49219-6.25-4.49219-3.02734 0-5.07812 1.46484-6.15234 4.44336l-22.9004 61.084c-0.390625 1.02539-0.537109 1.80664-0.537109 2.63672 0 2.44141 1.5625 3.95508 4.10156 3.95508Zm13.4766-28.3691 11.8652-32.8613h0.244141l11.8652 32.8613Z"/>
  </g>
  <line style="fill:none;stroke:#00AEEF;stroke-width:0.5;opacity:1.0;" x1="792.836" x2="792.836" y1="1919" y2="1933"/>
  <text style="stroke:none;fill:black;font-family:sans-serif;font-size:13;font-weight:bold;" transform="matrix(1 0 0 1 776 1953)">Margins</text>
  <text style="stroke:none;fill:black;font-family:sans-serif;font-size:13;" transform="matrix(1 0 0 1 776 1971)">Leading and trailing margins on the left and right side of each symbol</text>
  <text style="stroke:none;fill:black;font-family:sans-serif;font-size:13;" transform="matrix(1 0 0 1 776 1989)">can be adjusted by modifying the x-location of the margin guidelines.</text>
  <text style="stroke:none;fill:black;font-family:sans-serif;font-size:13;" transform="matrix(1 0 0 1 776 2007)">Modifications are automatically applied proportionally to all</text>
  <text style="stroke:none;fill:black;font-family:sans-serif;font-size:13;" transform="matrix(1 0 0 1 776 2025)">scales and weights.</text>
  <g transform="matrix(0.2 0 0 0.2 1289 1933)">
   <path d="m14.209 9.32617 8.49609 8.54492c4.29688 4.3457 9.22852 4.05273 13.8672-1.07422l53.4668-58.9355-4.83398-4.88281-53.0762 58.3984c-1.75781 2.00195-3.41797 2.49023-5.76172 0.146484l-5.85938-5.81055c-2.34375-2.29492-1.80664-4.00391 0.195312-5.81055l57.373-54.0039-4.88281-4.83398-57.959 54.4434c-4.93164 4.58984-5.32227 9.47266-1.02539 13.8184Zm32.0801-90.9668c-2.09961 2.05078-2.24609 4.93164-1.07422 6.88477 1.17188 1.80664 3.4668 2.97852 6.68945 2.14844 7.32422-1.70898 14.9414-2.00195 22.0703 2.68555l-2.92969 7.27539c-1.70898 4.15039-0.830078 7.08008 1.85547 9.81445l11.4746 11.5723c2.44141 2.44141 4.49219 2.53906 7.32422 2.05078l5.32227-0.976562 3.32031 3.36914-0.195312 2.7832c-0.195312 2.49023 0.439453 4.39453 2.88086 6.78711l3.80859 3.71094c2.39258 2.39258 5.46875 2.53906 7.8125 0.195312l14.5508-14.5996c2.34375-2.34375 2.24609-5.32227-0.146484-7.71484l-3.85742-3.80859c-2.39258-2.39258-4.24805-3.17383-6.64062-2.97852l-2.88086 0.244141-3.22266-3.17383 1.2207-5.61523c0.634766-2.83203-0.146484-5.0293-3.07617-7.95898l-10.9863-10.9375c-16.6992-16.6016-38.8672-16.2109-53.3203-1.75781Zm7.4707 1.85547c12.1582-8.88672 28.6133-7.37305 39.7461 3.75977l12.1582 12.0605c1.17188 1.17188 1.36719 2.09961 1.02539 3.80859l-1.61133 7.42188 7.51953 7.42188 4.93164-0.292969c1.26953-0.0488281 1.66016 0.0488281 2.63672 1.02539l2.88086 2.88086-12.207 12.207-2.88086-2.88086c-0.976562-0.976562-1.12305-1.36719-1.07422-2.68555l0.341797-4.88281-7.4707-7.42188-7.61719 1.26953c-1.61133 0.341797-2.34375 0.195312-3.56445-0.976562l-10.0098-10.0098c-1.26953-1.17188-1.41602-2.00195-0.634766-3.85742l4.39453-10.4492c-7.8125-7.27539-17.9688-10.4004-28.125-7.42188-0.78125 0.195312-1.07422-0.439453-0.439453-0.976562Z"/>
  </g>
  <text style="stroke:none;fill:black;font-family:sans-serif;font-size:13;font-weight:bold;" transform="matrix(1 0 0 1 1289 1953)">Exporting</text>
  <text style="stroke:none;fill:black;font-family:sans-serif;font-size:13;" transform="matrix(1 0 0 1 1289 1971)">Symbols should be outlined when exporting to ensure the</text>
  <text style="stroke:none;fill:black;font-family:sans-serif;font-size:13;" transform="matrix(1 0 0 1 1289 1989)">design is preserved when submitting to Xcode.</text>
  <text id="template-version" style="stroke:none;fill:black;font-family:sans-serif;font-size:13;text-anchor:end;" transform="matrix(1 0 0 1 3036 1933)">Template v.6.0</text>
  <text style="stroke:none;fill:black;font-family:sans-serif;font-size:13;text-anchor:end;" transform="matrix(1 0 0 1 3036 1951)">Requires Xcode 16 or greater</text>
  <text id="descriptive-name" style="stroke:none;fill:black;font-family:sans-serif;font-size:13;text-anchor:end;" transform="matrix(1 0 0 1 3036 1969)">Generated from book.pages.fill</text>
  <text style="stroke:none;fill:black;font-family:sans-serif;font-size:13;text-anchor:end;" transform="matrix(1 0 0 1 3036 1987)">Typeset at 100.0 points</text>
  <text style="stroke:none;fill:black;font-family:sans-serif;font-size:13;" transform="matrix(1 0 0 1 263 726)">Small</text>
  <text style="stroke:none;fill:black;font-family:sans-serif;font-size:13;" transform="matrix(1 0 0 1 263 1156)">Medium</text>
  <text style="stroke:none;fill:black;font-family:sans-serif;font-size:13;" transform="matrix(1 0 0 1 263 1586)">Large</text>
 </g>
 <g id="Guides">
  <g id="H-reference" style="fill:#27AAE1;stroke:none;" transform="matrix(1 0 0 1 339 696)">
   <path d="M0.993654 0L3.63775 0L29.3281-67.1323L30.0303-67.1323L30.0303-70.459L28.1226-70.459ZM11.6885-24.4799L46.9815-24.4799L46.2315-26.7285L12.4385-26.7285ZM55.1196 0L57.7637 0L30.6382-70.459L29.4326-70.459L29.4326-67.1323Z"/>
  </g>
  <line id="Baseline-S" style="fill:none;stroke:#27AAE1;opacity:1;stroke-width:0.5;" x1="263" x2="3036" y1="696" y2="696"/>
  <line id="Capline-S" style="fill:none;stroke:#27AAE1;opacity:1;stroke-width:0.5;" x1="263" x2="3036" y1="625.541" y2="625.541"/>
  <g id="H-reference" style="fill:#27AAE1;stroke:none;" transform="matrix(1 0 0 1 339 1126)">
   <path d="M0.993654 0L3.63775 0L29.3281-67.1323L30.0303-67.1323L30.0303-70.459L28.1226-70.459ZM11.6885-24.4799L46.9815-24.4799L46.2315-26.7285L12.4385-26.7285ZM55.1196 0L57.7637 0L30.6382-70.459L29.4326-70.459L29.4326-67.1323Z"/>
  </g>
  <line id="Baseline-M" style="fill:none;stroke:#27AAE1;opacity:1;stroke-width:0.5;" x1="263" x2="3036" y1="1126" y2="1126"/>
  <line id="Capline-M" style="fill:none;stroke:#27AAE1;opacity:1;stroke-width:0.5;" x1="263" x2="3036" y1="1055.54" y2="1055.54"/>
  <g id="H-reference" style="fill:#27AAE1;stroke:none;" transform="matrix(1 0 0 1 339 1556)">
   <path d="M0.993654 0L3.63775 0L29.3281-67.1323L30.0303-67.1323L30.0303-70.459L28.1226-70.459ZM11.6885-24.4799L46.9815-24.4799L46.2315-26.7285L12.4385-26.7285ZM55.1196 0L57.7637 0L30.6382-70.459L29.4326-70.459L29.4326-67.1323Z"/>
  </g>
  <line id="Baseline-L" style="fill:none;stroke:#27AAE1;opacity:1;stroke-width:0.5;" x1="263" x2="3036" y1="1556" y2="1556"/>
  <line id="Capline-L" style="fill:none;stroke:#27AAE1;opacity:1;stroke-width:0.5;" x1="263" x2="3036" y1="1485.54" y2="1485.54"/>
  <line id="right-margin-Black-S" style="fill:none;stroke:#00AEEF;stroke-width:0.5;opacity:1.0;" x1="2984.08" x2="2984.08" y1="600.785" y2="720.121"/>
  <line id="left-margin-Black-S" style="fill:none;stroke:#00AEEF;stroke-width:0.5;opacity:1.0;" x1="2882.72" x2="2882.72" y1="600.785" y2="720.121"/>
  <line id="right-margin-Regular-S" style="fill:none;stroke:#00AEEF;stroke-width:0.5;opacity:1.0;" x1="1494.94" x2="1494.94" y1="600.785" y2="720.121"/>
  <line id="left-margin-Regular-S" style="fill:none;stroke:#00AEEF;stroke-width:0.5;opacity:1.0;" x1="1404.75" x2="1404.75" y1="600.785" y2="720.121"/>
  <line id="right-margin-Ultralight-S" style="fill:none;stroke:#00AEEF;stroke-width:0.5;opacity:1.0;" x1="600.74" x2="600.74" y1="600.785" y2="720.121"/>
  <line id="left-margin-Ultralight-S" style="fill:none;stroke:#00AEEF;stroke-width:0.5;opacity:1.0;" x1="518.683" x2="518.683" y1="600.785" y2="720.121"/>
 </g>
 <g id="Symbols">
  <g id="Black-S" transform="matrix(1 0 0 1 2882.72 696)">
   <path class="monochrome-0 multicolor-0:tintColor hierarchical-0:secondary SFSymbolsPreviewWireframe" d="M91.6016-3.36914L91.6016-59.1309C91.6016-68.9453 86.4258-74.1699 76.7578-74.1699L39.209-74.1699C29.541-74.1699 24.3652-68.9453 24.3652-59.1309L24.3652-3.36914C24.3652 6.44531 29.541 11.6699 39.209 11.6699L76.7578 11.6699C86.4258 11.6699 91.6016 6.44531 91.6016-3.36914Z"/>
   <path class="monochrome-1 multicolor-1:tintColor hierarchical-1:primary SFSymbolsPreviewWireframe" d="M2.92969-4.88281C2.92969 7.08008 11.1816 15.6738 24.5605 14.8438C37.8906 14.0137 54.4922 11.1328 65.332 7.76367C74.9512 4.73633 79.3945-2.29492 79.3945-13.0859L79.3945-68.7012C79.3945-82.6172 69.1895-90.1855 55.5176-86.8652C45.8008-84.4238 32.2754-82.2266 20.9473-81.3965C9.375-80.5176 2.92969-73.5352 2.92969-62.4512Z"/>
   <path class="monochrome-2 multicolor-2:tintColor hierarchical-2:primary SFSymbolsPreviewWireframe" d="M9.76562-4.88281C9.76562 3.32031 14.8926 8.59375 24.1211 8.00781C37.0117 7.22656 52.9785 4.44336 63.2812 1.2207C70.5078-1.02539 72.5586-5.9082 72.5586-13.0859L72.5586-68.7012C72.5586-78.418 66.2109-82.4219 57.1289-80.2246C47.168-77.7344 33.0566-75.4395 21.4844-74.5605C13.6719-73.9746 9.76562-70.166 9.76562-62.4512Z"/>
   <path class="monochrome-3 multicolor-3:tintColor hierarchical-3:primary SFSymbolsPreviewWireframe" d="M29.0527-49.8047C27.2949-49.707 26.0742-51.0742 26.0742-52.6367C26.0742-54.1016 26.9531-55.4199 28.9062-55.6641C38.4766-56.3965 45.8008-57.8613 52.7344-59.5215C54.9805-59.9609 56.25-58.4473 56.25-56.8848C56.25-55.6152 55.7617-54.3457 53.5156-53.7598C46.1426-52.0508 38.623-50.5859 29.0527-49.8047ZM29.0527-38.7695C27.2949-38.7207 26.0742-39.9902 26.0742-41.6992C26.0742-43.1641 26.9531-44.5312 28.9062-44.6777C38.4766-45.459 45.8008-46.875 52.7344-48.4863C54.9805-48.9746 56.25-47.5098 56.25-45.8984C56.25-44.5801 55.7617-43.3105 53.5156-42.7734C46.1426-41.0645 38.623-39.6484 29.0527-38.7695ZM29.0527-27.832C27.2949-27.7344 26.0742-29.1016 26.0742-30.7129C26.0742-32.1777 26.9531-33.4961 28.9062-33.6914C38.4766-34.5215 45.8008-35.9375 52.7344-37.5488C54.9805-38.0371 56.25-36.5234 56.25-34.9121C56.25-33.6426 55.7617-32.373 53.5156-31.7871C46.1426-30.127 38.623-28.6621 29.0527-27.832ZM29.0527-16.8945C27.2949-16.8457 26.0742-18.1152 26.0742-19.7754C26.0742-21.2891 26.9531-22.6562 28.9062-22.7539C34.5215-23.1445 37.9883-23.6816 40.8691-24.1699C43.2129-24.6094 44.4336-23.0957 44.4336-21.4844C44.4336-20.166 43.6035-18.7988 41.8945-18.5059C38.5742-17.8711 34.8145-17.2852 29.0527-16.8945Z"/>
  </g>
  <g id="Regular-S" transform="matrix(1 0 0 1 1404.75 696)">
   <path class="monochrome-0 multicolor-0:tintColor hierarchical-0:secondary SFSymbolsPreviewWireframe" d="M80.4199-3.36914L80.4199-59.4238C80.4199-67.7246 76.3672-71.875 68.1641-71.875L30.2246-71.875C22.0215-71.875 17.9688-67.7246 17.9688-59.4238L17.9688-3.36914C17.9688 4.98047 22.0215 9.08203 30.2246 9.08203L68.1641 9.08203C76.3672 9.08203 80.4199 4.98047 80.4199-3.36914Z"/>
   <path class="monochrome-1 multicolor-1:tintColor hierarchical-1:primary SFSymbolsPreviewWireframe" d="M4.05273-4.83398C4.05273 5.37109 10.8398 11.9141 22.1191 11.1816C35.1074 10.3027 46.2402 9.0332 61.6699 4.44336C69.8242 1.9043 73.291-3.32031 73.291-12.793L73.291-67.5293C73.291-79.8828 65.1855-85.9863 54.0527-83.252C43.8965-80.8105 33.8379-78.9062 20.1172-77.9785C10.7422-77.2949 4.05273-71.1914 4.05273-60.7422Z"/>
   <path class="monochrome-2 multicolor-2:tintColor hierarchical-2:primary SFSymbolsPreviewWireframe" d="M9.76562-4.83398C9.76562 2.34375 14.1113 5.95703 21.7773 5.46875C34.5703 4.6875 45.1172 3.41797 60.0098-1.02539C65.625-2.73438 67.5781-5.71289 67.5781-12.793L67.5781-67.5293C67.5781-75.6836 63.3301-79.6875 55.4199-77.7344C45.1172-75.2441 34.5703-73.2422 20.5566-72.3145C14.1113-71.8262 9.76562-68.1152 9.76562-60.7422Z"/>
   <path class="monochrome-3 multicolor-3:tintColor hierarchical-3:primary SFSymbolsPreviewWireframe" d="M24.2188-52.4902C22.7051-52.3926 21.6797-53.4668 21.6797-54.8828C21.6797-56.2012 22.4121-57.2754 24.2188-57.4219C35.498-58.3008 44.2871-59.9609 52.6855-61.9141C54.6387-62.3535 55.7129-61.1816 55.7129-59.8145C55.7129-58.5938 55.2734-57.5195 53.1738-57.0801C44.2871-55.0293 35.498-53.3691 24.2188-52.4902ZM24.2188-39.9414C22.7051-39.8926 21.6797-40.9668 21.6797-42.3828C21.6797-43.7012 22.4121-44.7754 24.2188-44.9219C35.498-45.8008 44.2871-47.4609 52.6855-49.4141C54.6387-49.8535 55.7129-48.6816 55.7129-47.3145C55.7129-46.0449 55.2734-45.0195 53.1738-44.5801C44.2871-42.5293 35.498-40.8203 24.2188-39.9414ZM24.2188-27.4414C22.7051-27.3438 21.6797-28.4668 21.6797-29.8828C21.6797-31.2012 22.4121-32.2754 24.2188-32.4219C35.498-33.3008 44.2871-34.9609 52.6855-36.9141C54.6387-37.3535 55.7129-36.1328 55.7129-34.7656C55.7129-33.5449 55.2734-32.5195 53.1738-32.0312C44.2871-29.9805 35.498-28.3203 24.2188-27.4414ZM24.2188-14.9902C22.7051-14.8926 21.6797-15.9668 21.6797-17.3828C21.6797-18.75 22.4121-19.8242 24.2188-20.0195C30.7617-20.4102 34.9609-20.9961 38.4277-21.6309C40.4297-21.9727 41.4551-20.7031 41.4551-19.3848C41.4551-18.2617 40.7715-17.0898 39.3066-16.7969C35.2051-16.0645 30.9082-15.4297 24.2188-14.9902Z"/>
  </g>
  <g id="Ultralight-S" transform="matrix(1 0 0 1 518.683 696)">
   <path class="monochrome-0 multicolor-0:tintColor hierarchical-0:secondary SFSymbolsPreviewWireframe" d="M72.2916-3.50537L72.2916-64.101C72.2916-70.6308 68.8292-74.1001 62.3062-74.1001L28.3628-74.1001C21.8398-74.1001 18.3774-70.6308 18.3774-64.101L18.3774-3.50537C18.3774 3.02785 21.8398 6.49367 28.3628 6.49367L62.3062 6.49367C68.8292 6.49367 72.2916 3.02785 72.2916-3.50537Z"/>
   <path class="monochrome-1 multicolor-1:tintColor hierarchical-1:primary SFSymbolsPreviewWireframe" d="M6.6865-3.56251C6.6865 2.55569 11.0669 6.60112 17.4419 6.59525C30.521 6.48831 45.9224 5.53665 59.1724 3.30811C65.0562 2.31299 69.1587-1.23146 69.1587-7.70707L69.1587-69.6181C69.1587-76.3863 64.0049-80.3555 57.5039-79.2559C45.2134-77.314 30.2051-75.8638 17.8013-75.7988C11.0146-75.751 6.6865-71.6909 6.6865-65.1015Z"/>
   <path class="monochrome-2 multicolor-2:tintColor hierarchical-2:primary SFSymbolsPreviewWireframe" d="M9.76562-3.56251C9.76562 0.799817 12.7036 3.55031 17.418 3.51613C30.3926 3.41603 45.5713 2.50977 58.6475 0.336903C63.3091-0.463885 66.0796-2.94289 66.0796-7.70707L66.0796-69.6181C66.0796-74.4121 62.7398-77.0537 57.9629-76.2359C45.5713-74.2905 30.3926-72.7881 17.8321-72.7231C12.6582-72.689 9.76562-69.977 9.76562-65.1015Z"/>
   <path class="monochrome-3 multicolor-3:tintColor hierarchical-3:primary SFSymbolsPreviewWireframe" d="M22.4478-56.3955C21.8423-56.3886 21.3618-56.8725 21.3618-57.4258C21.3618-58.0176 21.8218-58.5015 22.4478-58.5117C33.1821-58.5278 42.7886-59.5522 53.3667-61.5054C54.0483-61.627 54.4868-61.0454 54.4868-60.4502C54.4868-59.9106 54.0474-59.5176 53.4009-59.396C42.7886-57.436 33.1821-56.4116 22.4478-56.3955ZM22.4478-42.8476C21.8423-42.8442 21.3618-43.3281 21.3618-43.9267C21.3618-44.4731 21.8218-44.957 22.4478-44.9673C33.1821-45.0288 42.7886-46.0078 53.3667-47.9609C54.0483-48.0825 54.4868-47.501 54.4868-46.9512C54.4868-46.3628 54.0474-45.9731 53.4009-45.897C42.7886-43.937 33.1821-42.9092 22.4478-42.8476ZM22.4478-29.3486C21.8423-29.3418 21.3618-29.8291 21.3618-30.3823C21.3618-30.9741 21.8218-31.458 22.4478-31.4683C33.1821-31.4844 42.7886-32.5088 53.3667-34.4619C54.0483-34.5835 54.4868-33.9986 54.4868-33.4033C54.4868-32.8638 54.0474-32.4741 53.4009-32.3491C42.7886-30.3892 33.1821-29.4101 22.4478-29.3486ZM22.4478-15.8076C21.8423-15.8008 21.3618-16.2847 21.3618-16.8833C21.3618-17.4331 21.8218-17.917 22.4478-17.9307C27.8555-17.958 32.1455-18.4531 37.3379-18.9517C38.023-19.021 38.5034-18.478 38.5034-17.8862C38.5034-17.3535 38.0469-16.9082 37.3994-16.8423C32.1626-16.3369 27.8657-15.8384 22.4478-15.8076Z"/>
  </g>
 </g>
</svg>
