<?xml version="1.0" encoding="UTF-8"?>
<!--Generator: Apple Native CoreSVG 341-->
<!DOCTYPE svg
PUBLIC "-//W3C//DTD SVG 1.1//EN"
       "http://www.w3.org/Graphics/SVG/1.1/DTD/svg11.dtd">
<svg version="1.1" xmlns="http://www.w3.org/2000/svg" xmlns:xlink="http://www.w3.org/1999/xlink" viewBox="0 0 3300 2200">
 <!--glyph: "101AAE", point size: 100.0, font version: "21.1d1e1", template writer version: "138.0.0"-->
 <style>.defaults {-sfsymbols-draw-reverses-motion-groups:true}

.monochrome-0 {-sfsymbols-motion-group:1;-sfsymbols-layer-tags:bubbles.and.sparkles}
.monochrome-1 {-sfsymbols-motion-group:1;-sfsymbols-layer-tags:bubbles.and.sparkles}
.monochrome-2 {-sfsymbols-motion-group:0;-sfsymbols-layer-tags:bubbles.and.sparkles}
.monochrome-3 {-sfsymbols-motion-group:0;-sfsymbols-layer-tags:bubbles.and.sparkles}
.monochrome-4 {-sfsymbols-motion-group:0;-sfsymbols-layer-tags:bubbles.and.sparkles}
.monochrome-5 {opacity:0.0;-sfsymbols-clear-behind:true;-sfsymbols-motion-group:0;-sfsymbols-layer-tags:bubbles.and.sparkles}
.monochrome-6 {-sfsymbols-motion-group:0;-sfsymbols-layer-tags:bubbles.and.sparkles}

.multicolor-0:tintColor {-sfsymbols-motion-group:1;-sfsymbols-layer-tags:bubbles.and.sparkles}
.multicolor-1:tintColor {-sfsymbols-motion-group:1;-sfsymbols-layer-tags:bubbles.and.sparkles}
.multicolor-2:tintColor {-sfsymbols-motion-group:0;-sfsymbols-layer-tags:bubbles.and.sparkles}
.multicolor-3:tintColor {-sfsymbols-motion-group:0;-sfsymbols-layer-tags:bubbles.and.sparkles}
.multicolor-4:tintColor {-sfsymbols-motion-group:0;-sfsymbols-layer-tags:bubbles.and.sparkles}
.multicolor-5:tintColor {opacity:0.0;-sfsymbols-clear-behind:true;-sfsymbols-motion-group:0;-sfsymbols-layer-tags:bubbles.and.sparkles}
.multicolor-6:tintColor {-sfsymbols-motion-group:0;-sfsymbols-layer-tags:bubbles.and.sparkles}

.hierarchical-0:secondary {-sfsymbols-motion-group:1;-sfsymbols-layer-tags:bubbles.and.sparkles}
.hierarchical-1:secondary {-sfsymbols-motion-group:1;-sfsymbols-layer-tags:bubbles.and.sparkles}
.hierarchical-2:primary {-sfsymbols-motion-group:0;-sfsymbols-layer-tags:bubbles.and.sparkles}
.hierarchical-3:primary {-sfsymbols-motion-group:0;-sfsymbols-layer-tags:bubbles.and.sparkles}
.hierarchical-4:primary {-sfsymbols-motion-group:0;-sfsymbols-layer-tags:bubbles.and.sparkles}
.hierarchical-5:primary {opacity:0.0;-sfsymbols-clear-behind:true;-sfsymbols-motion-group:0;-sfsymbols-layer-tags:bubbles.and.sparkles}
.hierarchical-6:primary {-sfsymbols-motion-group:0;-sfsymbols-layer-tags:bubbles.and.sparkles}

.SFSymbolsPreviewWireframe {fill:none;opacity:1.0;stroke:black;stroke-width:0.5}
</style>
 <g id="Notes">
  <rect height="2200" id="artboard" style="fill:white;opacity:1" width="3300" x="0" y="0"/>
  <line style="fill:none;stroke:black;opacity:1;stroke-width:0.5;" x1="263" x2="3036" y1="292" y2="292"/>
  <text style="stroke:none;fill:black;font-family:sans-serif;font-size:13;font-weight:bold;" transform="matrix(1 0 0 1 263 322)">Weight/Scale Variations</text>
  <text style="stroke:none;fill:black;font-family:sans-serif;font-size:13;text-anchor:middle;" transform="matrix(1 0 0 1 559.711 322)">Ultralight</text>
  <text style="stroke:none;fill:black;font-family:sans-serif;font-size:13;text-anchor:middle;" transform="matrix(1 0 0 1 856.422 322)">Thin</text>
  <text style="stroke:none;fill:black;font-family:sans-serif;font-size:13;text-anchor:middle;" transform="matrix(1 0 0 1 1153.13 322)">Light</text>
  <text style="stroke:none;fill:black;font-family:sans-serif;font-size:13;text-anchor:middle;" transform="matrix(1 0 0 1 1449.84 322)">Regular</text>
  <text style="stroke:none;fill:black;font-family:sans-serif;font-size:13;text-anchor:middle;" transform="matrix(1 0 0 1 1746.56 322)">Medium</text>
  <text style="stroke:none;fill:black;font-family:sans-serif;font-size:13;text-anchor:middle;" transform="matrix(1 0 0 1 2043.27 322)">Semibold</text>
  <text style="stroke:none;fill:black;font-family:sans-serif;font-size:13;text-anchor:middle;" transform="matrix(1 0 0 1 2339.98 322)">Bold</text>
  <text style="stroke:none;fill:black;font-family:sans-serif;font-size:13;text-anchor:middle;" transform="matrix(1 0 0 1 2636.69 322)">Heavy</text>
  <text style="stroke:none;fill:black;font-family:sans-serif;font-size:13;text-anchor:middle;" transform="matrix(1 0 0 1 2933.4 322)">Black</text>
  <line style="fill:none;stroke:black;opacity:1;stroke-width:0.5;" x1="263" x2="3036" y1="1903" y2="1903"/>
  <g transform="matrix(0.2 0 0 0.2 263 1933)">
   <path d="m46.2402 4.15039c21.7773 0 39.4531-17.627 39.4531-39.4043s-17.6758-39.4043-39.4531-39.4043c-21.7285 0-39.4043 17.627-39.4043 39.4043s17.6758 39.4043 39.4043 39.4043Zm0-7.42188c-17.6758 0-31.9336-14.3066-31.9336-31.9824s14.2578-31.9824 31.9336-31.9824 31.9824 14.3066 31.9824 31.9824-14.3066 31.9824-31.9824 31.9824Zm3.61328-17.7734v-28.4668c0-2.24609-1.46484-3.75977-3.71094-3.75977-2.14844 0-3.61328 1.51367-3.61328 3.75977v28.4668c0 2.19727 1.46484 3.71094 3.61328 3.71094 2.24609 0 3.71094-1.51367 3.71094-3.71094Zm-17.8223-10.5957h28.418c2.19727 0 3.71094-1.46484 3.71094-3.61328 0-2.19727-1.51367-3.71094-3.71094-3.71094h-28.418c-2.24609 0-3.75977 1.51367-3.75977 3.71094 0 2.14844 1.51367 3.61328 3.75977 3.61328Z"/>
  </g>
  <g transform="matrix(0.2 0 0 0.2 281.506 1933)">
   <path d="m58.5449 14.5508c27.4902 0 49.8047-22.3145 49.8047-49.8047s-22.3145-49.8047-49.8047-49.8047-49.8047 22.3145-49.8047 49.8047 22.3145 49.8047 49.8047 49.8047Zm0-8.30078c-22.9492 0-41.5039-18.5547-41.5039-41.5039s18.5547-41.5039 41.5039-41.5039 41.5039 18.5547 41.5039 41.5039-18.5547 41.5039-41.5039 41.5039Zm4.05273-23.0957v-36.9141c0-2.49023-1.70898-4.19922-4.15039-4.19922-2.39258 0-4.05273 1.70898-4.05273 4.19922v36.9141c0 2.44141 1.66016 4.15039 4.05273 4.15039 2.44141 0 4.15039-1.66016 4.15039-4.15039Zm-22.5586-14.4043h36.9629c2.44141 0 4.15039-1.61133 4.15039-4.00391 0-2.44141-1.70898-4.15039-4.15039-4.15039h-36.9629c-2.49023 0-4.15039 1.70898-4.15039 4.15039 0 2.39258 1.66016 4.00391 4.15039 4.00391Z"/>
  </g>
  <g transform="matrix(0.2 0 0 0.2 304.924 1933)">
   <path d="m74.8535 28.3203c35.1074 0 63.623-28.4668 63.623-63.5742s-28.5156-63.623-63.623-63.623-63.5742 28.5156-63.5742 63.623 28.4668 63.5742 63.5742 63.5742Zm0-9.08203c-30.127 0-54.4922-24.3652-54.4922-54.4922s24.3652-54.4922 54.4922-54.4922 54.4922 24.3652 54.4922 54.4922-24.3652 54.4922-54.4922 54.4922Zm4.44336-30.3223v-48.4863c0-2.73438-1.85547-4.63867-4.54102-4.63867-2.58789 0-4.44336 1.9043-4.44336 4.63867v48.4863c0 2.68555 1.85547 4.58984 4.44336 4.58984 2.68555 0 4.54102-1.85547 4.54102-4.58984Zm-28.7109-19.7754h48.4863c2.68555 0 4.58984-1.80664 4.58984-4.39453 0-2.73438-1.85547-4.58984-4.58984-4.58984h-48.4863c-2.73438 0-4.58984 1.85547-4.58984 4.58984 0 2.58789 1.85547 4.39453 4.58984 4.39453Z"/>
  </g>
  <text style="stroke:none;fill:black;font-family:sans-serif;font-size:13;font-weight:bold;" transform="matrix(1 0 0 1 263 1953)">Design Variations</text>
  <text style="stroke:none;fill:black;font-family:sans-serif;font-size:13;" transform="matrix(1 0 0 1 263 1971)">Symbols are supported in up to nine weights and three scales.</text>
  <text style="stroke:none;fill:black;font-family:sans-serif;font-size:13;" transform="matrix(1 0 0 1 263 1989)">For optimal layout with text and other symbols, vertically align</text>
  <text style="stroke:none;fill:black;font-family:sans-serif;font-size:13;" transform="matrix(1 0 0 1 263 2007)">symbols with the adjacent text.</text>
  <line style="fill:none;stroke:#00AEEF;stroke-width:0.5;opacity:1.0;" x1="776" x2="776" y1="1919" y2="1933"/>
  <g transform="matrix(0.2 0 0 0.2 776 1933)">
   <path d="m16.5527 0.78125c2.58789 0 3.85742-0.976562 4.78516-3.71094l20.5566-57.5195h0.244141l20.6055 57.5195c0.927734 2.73438 2.19727 3.71094 4.73633 3.71094 2.58789 0 4.24805-1.5625 4.24805-4.00391 0-0.830078-0.146484-1.61133-0.537109-2.63672l-22.9004-60.9863c-1.12305-2.97852-3.125-4.49219-6.25-4.49219-3.02734 0-5.07812 1.46484-6.15234 4.44336l-22.9004 61.084c-0.390625 1.02539-0.537109 1.80664-0.537109 2.63672 0 2.44141 1.5625 3.95508 4.10156 3.95508Zm10.2051-20.9473h30.6641c2.00195 0 3.66211-1.66016 3.66211-3.66211 0-2.05078-1.66016-3.66211-3.66211-3.66211h-30.6641c-2.00195 0-3.66211 1.61133-3.66211 3.66211 0 2.00195 1.66016 3.66211 3.66211 3.66211Z"/>
  </g>
  <line style="fill:none;stroke:#00AEEF;stroke-width:0.5;opacity:1.0;" x1="792.836" x2="792.836" y1="1919" y2="1933"/>
  <text style="stroke:none;fill:black;font-family:sans-serif;font-size:13;font-weight:bold;" transform="matrix(1 0 0 1 776 1953)">Margins</text>
  <text style="stroke:none;fill:black;font-family:sans-serif;font-size:13;" transform="matrix(1 0 0 1 776 1971)">Leading and trailing margins on the left and right side of each symbol</text>
  <text style="stroke:none;fill:black;font-family:sans-serif;font-size:13;" transform="matrix(1 0 0 1 776 1989)">can be adjusted by modifying the x-location of the margin guidelines.</text>
  <text style="stroke:none;fill:black;font-family:sans-serif;font-size:13;" transform="matrix(1 0 0 1 776 2007)">Modifications are automatically applied proportionally to all</text>
  <text style="stroke:none;fill:black;font-family:sans-serif;font-size:13;" transform="matrix(1 0 0 1 776 2025)">scales and weights.</text>
  <g transform="matrix(0.2 0 0 0.2 1289 1933)">
   <path d="m14.209 13.1348 7.86133 7.86133c4.29688 4.39453 9.32617 4.10156 13.8672-1.02539l60.6934-68.2129-4.88281-4.88281-60.2539 67.6758c-1.80664 1.95312-3.4668 2.44141-5.81055 0.0976562l-5.17578-5.12695c-2.29492-2.29492-1.80664-3.95508 0.195312-5.81055l67.4805-62.1582-4.88281-4.83398-68.0664 62.5977c-4.98047 4.58984-5.32227 9.47266-1.02539 13.8184Zm44.873-97.4609c-2.05078 2.00195-2.24609 4.88281-1.07422 6.78711 1.12305 1.80664 3.4668 3.02734 6.5918 2.24609 5.85938-1.66016 12.5977-2.39258 18.8965 0.927734l-2.68555 7.12891c-1.61133 4.00391-0.732422 6.88477 1.70898 9.42383l10.2539 10.3027c2.34375 2.39258 4.54102 2.44141 7.08008 1.95312l4.44336-0.732422 2.58789 2.53906-0.195312 2.24609c-0.0976562 2.29492 0.537109 4.29688 2.7832 6.49414l3.36914 3.32031c2.29492 2.29492 5.51758 2.49023 7.8125 0.195312l12.9883-13.0371c2.29492-2.34375 2.14844-5.37109-0.195312-7.66602l-3.41797-3.41797c-2.19727-2.19727-4.05273-3.02734-6.34766-2.88086l-2.34375 0.244141-2.44141-2.44141 1.02539-4.6875c0.634766-2.73438-0.244141-4.98047-2.88086-7.61719l-11.2793-11.1816c-12.9395-12.8418-35.5957-11.0352-46.6797-0.146484Zm7.08008 2.05078c8.78906-6.39648 25.9766-5.66406 33.6914 1.95312l12.3047 12.207c1.02539 1.02539 1.2207 1.80664 0.927734 3.32031l-1.46484 6.64062 6.73828 6.68945 4.39453-0.244141c1.12305-0.0488281 1.51367 0.0488281 2.34375 0.878906l2.53906 2.49023-10.8398 10.8398-2.49023-2.49023c-0.830078-0.878906-0.976562-1.2207-0.927734-2.39258l0.292969-4.3457-6.68945-6.73828-6.83594 1.17188c-1.41602 0.292969-2.05078 0.195312-3.17383-0.878906l-8.93555-8.88672c-1.07422-1.02539-1.17188-1.70898-0.488281-3.36914l4.58984-11.4746c-6.10352-6.34766-17.041-7.51953-25.5859-4.58984-0.683594 0.244141-0.927734-0.390625-0.390625-0.78125Z"/>
  </g>
  <text style="stroke:none;fill:black;font-family:sans-serif;font-size:13;font-weight:bold;" transform="matrix(1 0 0 1 1289 1953)">Exporting</text>
  <text style="stroke:none;fill:black;font-family:sans-serif;font-size:13;" transform="matrix(1 0 0 1 1289 1971)">Symbols should be outlined when exporting to ensure the</text>
  <text style="stroke:none;fill:black;font-family:sans-serif;font-size:13;" transform="matrix(1 0 0 1 1289 1989)">design is preserved when submitting to Xcode.</text>
  <text id="template-version" style="stroke:none;fill:black;font-family:sans-serif;font-size:13;text-anchor:end;" transform="matrix(1 0 0 1 3036 1933)">Template v.7.0</text>
  <text style="stroke:none;fill:black;font-family:sans-serif;font-size:13;text-anchor:end;" transform="matrix(1 0 0 1 3036 1951)">Requires Xcode 26 or greater</text>
  <text id="descriptive-name" style="stroke:none;fill:black;font-family:sans-serif;font-size:13;text-anchor:end;" transform="matrix(1 0 0 1 3036 1969)">Generated from bubbles.and.sparkles</text>
  <text style="stroke:none;fill:black;font-family:sans-serif;font-size:13;text-anchor:end;" transform="matrix(1 0 0 1 3036 1987)">Typeset at 100.0 points</text>
  <text style="stroke:none;fill:black;font-family:sans-serif;font-size:13;" transform="matrix(1 0 0 1 263 726)">Small</text>
  <text style="stroke:none;fill:black;font-family:sans-serif;font-size:13;" transform="matrix(1 0 0 1 263 1156)">Medium</text>
  <text style="stroke:none;fill:black;font-family:sans-serif;font-size:13;" transform="matrix(1 0 0 1 263 1586)">Large</text>
 </g>
 <g id="Guides">
  <g id="H-reference" style="fill:#27AAE1;stroke:none;" transform="matrix(1 0 0 1 339 696)">
   <path d="M0.993654 0L3.63775 0L29.3281-67.1323L30.0303-67.1323L30.0303-70.459L28.1226-70.459ZM11.6885-24.4799L46.9815-24.4799L46.2315-26.7285L12.4385-26.7285ZM55.1196 0L57.7637 0L30.6382-70.459L29.4326-70.459L29.4326-67.1323Z"/>
  </g>
  <line id="Baseline-S" style="fill:none;stroke:#27AAE1;opacity:1;stroke-width:0.5;" x1="263" x2="3036" y1="696" y2="696"/>
  <line id="Capline-S" style="fill:none;stroke:#27AAE1;opacity:1;stroke-width:0.5;" x1="263" x2="3036" y1="625.541" y2="625.541"/>
  <g id="H-reference" style="fill:#27AAE1;stroke:none;" transform="matrix(1 0 0 1 339 1126)">
   <path d="M0.993654 0L3.63775 0L29.3281-67.1323L30.0303-67.1323L30.0303-70.459L28.1226-70.459ZM11.6885-24.4799L46.9815-24.4799L46.2315-26.7285L12.4385-26.7285ZM55.1196 0L57.7637 0L30.6382-70.459L29.4326-70.459L29.4326-67.1323Z"/>
  </g>
  <line id="Baseline-M" style="fill:none;stroke:#27AAE1;opacity:1;stroke-width:0.5;" x1="263" x2="3036" y1="1126" y2="1126"/>
  <line id="Capline-M" style="fill:none;stroke:#27AAE1;opacity:1;stroke-width:0.5;" x1="263" x2="3036" y1="1055.54" y2="1055.54"/>
  <g id="H-reference" style="fill:#27AAE1;stroke:none;" transform="matrix(1 0 0 1 339 1556)">
   <path d="M0.993654 0L3.63775 0L29.3281-67.1323L30.0303-67.1323L30.0303-70.459L28.1226-70.459ZM11.6885-24.4799L46.9815-24.4799L46.2315-26.7285L12.4385-26.7285ZM55.1196 0L57.7637 0L30.6382-70.459L29.4326-70.459L29.4326-67.1323Z"/>
  </g>
  <line id="Baseline-L" style="fill:none;stroke:#27AAE1;opacity:1;stroke-width:0.5;" x1="263" x2="3036" y1="1556" y2="1556"/>
  <line id="Capline-L" style="fill:none;stroke:#27AAE1;opacity:1;stroke-width:0.5;" x1="263" x2="3036" y1="1485.54" y2="1485.54"/>
  <line id="right-margin-Black-S" style="fill:none;stroke:#00AEEF;stroke-width:0.5;opacity:1.0;" x1="2986.94" x2="2986.94" y1="600.785" y2="720.121"/>
  <line id="left-margin-Black-S" style="fill:none;stroke:#00AEEF;stroke-width:0.5;opacity:1.0;" x1="2879.86" x2="2879.86" y1="600.785" y2="720.121"/>
  <line id="right-margin-Regular-S" style="fill:none;stroke:#00AEEF;stroke-width:0.5;opacity:1.0;" x1="1500.53" x2="1500.53" y1="600.785" y2="720.121"/>
  <line id="left-margin-Regular-S" style="fill:none;stroke:#00AEEF;stroke-width:0.5;opacity:1.0;" x1="1399.16" x2="1399.16" y1="600.785" y2="720.121"/>
  <line id="right-margin-Ultralight-S" style="fill:none;stroke:#00AEEF;stroke-width:0.5;opacity:1.0;" x1="607.398" x2="607.398" y1="600.785" y2="720.121"/>
  <line id="left-margin-Ultralight-S" style="fill:none;stroke:#00AEEF;stroke-width:0.5;opacity:1.0;" x1="512.025" x2="512.025" y1="600.785" y2="720.121"/>
 </g>
 <g id="Symbols">
  <g id="Black-S" transform="matrix(1 0 0 1 2879.86 696)">
   <path class="monochrome-0 multicolor-0:tintColor hierarchical-0:secondary SFSymbolsPreviewWireframe" d="M81.1035 7.61719C82.8613 7.61719 84.2773 6.39648 84.5215 4.63867C85.4492-3.4668 84.8633-3.36914 94.4336-5.22461C96.1426-5.51758 97.3145-6.83594 97.3145-8.54492C97.3145-10.3027 96.0449-11.6699 94.2871-11.9141C85.3516-13.0371 85.4492-12.8906 84.5215-21.582C84.375-23.3398 82.9102-24.6582 81.1035-24.6582C79.2969-24.6582 77.8809-23.3398 77.7344-21.5332C76.9043-13.7695 77.6367-13.7207 67.7734-11.8652C66.1133-11.5723 64.9414-10.1562 64.9414-8.54492C64.9414-6.78711 66.1621-5.51758 68.0176-5.17578C76.9531-3.85742 76.8555-3.90625 77.7344 4.49219C77.8809 6.29883 79.2969 7.61719 81.1035 7.61719Z"/>
   <path class="monochrome-1 multicolor-1:tintColor hierarchical-1:secondary SFSymbolsPreviewWireframe" d="M37.793-53.7598C39.2578-53.7598 40.4297-54.834 40.6738-56.25C41.8945-62.3535 41.3574-61.8164 47.4121-63.0371C48.9258-63.2812 49.9512-64.4531 49.9512-65.9668C49.9512-67.4316 48.9258-68.6523 47.4121-68.9453C41.3574-70.0684 41.8945-69.5312 40.6738-75.5859C40.4297-77.0996 39.2578-78.125 37.793-78.125C36.2793-78.125 35.1074-77.0996 34.8633-75.5859C33.6426-69.5312 34.1797-70.0684 28.0762-68.8965C26.6602-68.6523 25.5859-67.4316 25.5859-65.9668C25.5859-64.502 26.6113-63.2812 28.0762-63.0371C34.1797-61.8164 33.6426-62.3535 34.8633-56.25C35.1074-54.7852 36.3281-53.7598 37.793-53.7598Z"/>
   <path class="monochrome-2 multicolor-2:tintColor hierarchical-2:primary SFSymbolsPreviewWireframe" d="M37.8418 5.81055C45.0684 5.81055 51.0742-0.244141 51.0742-7.51953C51.0742-14.7461 45.0684-20.752 37.8418-20.752C30.5176-20.752 24.5117-14.7949 24.5117-7.51953C24.5117-0.195312 30.5176 5.81055 37.8418 5.81055ZM37.8906-3.07617C35.3516-3.07617 33.3496-5.07812 33.3496-7.51953C33.3496-9.91211 35.4004-11.9141 37.8906-11.9141C40.1855-11.9141 42.1875-9.91211 42.1875-7.51953C42.1875-5.12695 40.1855-3.07617 37.8906-3.07617Z"/>
   <path class="monochrome-3 multicolor-3:tintColor hierarchical-3:primary SFSymbolsPreviewWireframe" d="M22.2656-30.2246C29.1016-30.2246 34.7656-35.8887 34.7656-42.7246C34.7656-49.5605 29.1016-55.2246 22.2656-55.2246C15.4297-55.2246 9.76562-49.5605 9.76562-42.7246C9.76562-35.8887 15.4297-30.2246 22.2656-30.2246ZM22.2656-39.3066C20.4102-39.3066 18.8477-40.8691 18.8477-42.7246C18.8477-44.5801 20.4102-46.1426 22.2656-46.1426C24.1211-46.1426 25.6836-44.5801 25.6836-42.7246C25.6836-40.8691 24.1211-39.3066 22.2656-39.3066Z"/>
   <path class="monochrome-4 multicolor-4:tintColor hierarchical-4:primary SFSymbolsPreviewWireframe" d="M75.3418-32.0801C86.8164-32.0801 96.1914-41.4062 96.1914-52.832C96.1914-64.3555 86.8652-73.6816 75.3418-73.6816C63.8184-73.6816 54.4922-64.3555 54.4922-52.832C54.4922-41.4062 63.8672-32.0801 75.3418-32.0801ZM75.3418-42.041C69.3359-42.041 64.502-46.875 64.502-52.832C64.502-58.8867 69.2871-63.7207 75.3418-63.7207C81.3965-63.7207 86.1816-58.8867 86.1816-52.832C86.1816-46.875 81.3477-42.041 75.3418-42.041Z"/>
   <path class="monochrome-5 monochrome-6 multicolor-5:tintColor multicolor-6:tintColor hierarchical-5:primary hierarchical-6:primary SFSymbolsPreviewWireframe" d="M59.3262-19.9219C68.9941-19.9219 76.8066-27.6855 76.8066-37.3535C76.8066-47.0215 68.9941-54.834 59.3262-54.834C49.6582-54.834 41.8945-47.0215 41.8945-37.3535C41.8945-27.7344 49.707-19.9219 59.3262-19.9219Z"/>
   <path class="monochrome-6 multicolor-6:tintColor hierarchical-6:primary SFSymbolsPreviewWireframe" d="M59.3262-29.8828C55.1758-29.8828 51.8555-33.2031 51.8555-37.3535C51.8555-41.5527 55.1758-44.873 59.3262-44.873C63.4766-44.873 66.8457-41.5039 66.8457-37.3535C66.8457-33.2031 63.5254-29.8828 59.3262-29.8828Z"/>
  </g>
  <g id="Regular-S" transform="matrix(1 0 0 1 1399.16 696)">
   <path class="monochrome-0 multicolor-0:tintColor hierarchical-0:secondary SFSymbolsPreviewWireframe" d="M77.3438 3.95508C78.2227 3.95508 79.0039 3.27148 79.1504 2.34375C80.2734-6.64062 80.3711-6.64062 89.9902-8.44727C90.918-8.64258 91.6016-9.375 91.6016-10.2539C91.6016-11.1816 90.918-11.9141 89.9414-12.0605C80.5176-13.2812 80.2246-13.5742 79.1504-22.8027C79.0527-23.7793 78.2715-24.4629 77.3438-24.4629C76.3672-24.4629 75.6348-23.7305 75.5371-22.7539C74.5117-13.8184 74.2188-13.8184 64.6484-12.0605C63.7207-11.8652 63.0859-11.1328 63.0859-10.2539C63.0859-9.32617 63.7695-8.64258 64.8438-8.44727C74.2188-7.03125 74.5117-6.68945 75.5371 2.24609C75.6348 3.22266 76.3672 3.95508 77.3438 3.95508Z"/>
   <path class="monochrome-1 multicolor-1:tintColor hierarchical-1:secondary SFSymbolsPreviewWireframe" d="M35.4004-53.6133C36.084-53.6133 36.6699-54.1016 36.8164-54.834C38.0859-61.4746 37.9395-61.3281 44.5801-62.5977C45.3613-62.7441 45.8008-63.3301 45.8008-64.0137C45.8008-64.7461 45.3613-65.332 44.5801-65.4297C37.9395-66.748 38.0859-66.6016 36.8164-73.2422C36.6699-73.9746 36.084-74.4629 35.4004-74.4629C34.668-74.4629 34.1309-73.9746 33.9844-73.2422C32.7148-66.6016 32.8613-66.748 26.2207-65.4297C25.4395-65.332 24.9512-64.7461 24.9512-64.0137C24.9512-63.3301 25.4395-62.7441 26.2207-62.5977C32.8613-61.3281 32.7148-61.4746 33.9844-54.834C34.1309-54.1016 34.668-53.6133 35.4004-53.6133Z"/>
   <path class="monochrome-2 multicolor-2:tintColor hierarchical-2:primary SFSymbolsPreviewWireframe" d="M35.4004 3.02734C41.6016 3.02734 46.6797-2.09961 46.6797-8.34961C46.6797-14.502 41.6016-19.6289 35.4004-19.6289C29.1504-19.6289 24.0234-14.502 24.0234-8.34961C24.0234-2.09961 29.1504 3.02734 35.4004 3.02734ZM35.4004-3.56445C32.7637-3.56445 30.6152-5.71289 30.6152-8.34961C30.6152-10.8887 32.8125-13.0371 35.4004-13.0371C37.9395-13.0371 40.0879-10.8887 40.0879-8.34961C40.0879-5.76172 37.9395-3.56445 35.4004-3.56445Z"/>
   <path class="monochrome-3 multicolor-3:tintColor hierarchical-3:primary SFSymbolsPreviewWireframe" d="M20.3613-31.8359C26.123-31.8359 30.9082-36.6211 30.9082-42.4316C30.9082-48.2422 26.123-52.9785 20.3613-52.9785C14.5508-52.9785 9.76562-48.2422 9.76562-42.4316C9.76562-36.6211 14.5508-31.8359 20.3613-31.8359ZM20.3613-38.4277C18.1641-38.4277 16.3574-40.2344 16.3574-42.4316C16.3574-44.6289 18.1641-46.4355 20.3613-46.4355C22.5098-46.4355 24.3164-44.6289 24.3164-42.4316C24.3164-40.2344 22.5098-38.4277 20.3613-38.4277Z"/>
   <path class="monochrome-4 multicolor-4:tintColor hierarchical-4:primary SFSymbolsPreviewWireframe" d="M71.7285-33.6426C82.0312-33.6426 90.3809-41.9922 90.3809-52.2461C90.3809-62.5488 82.0312-70.8496 71.7285-70.8496C61.4258-70.8496 53.125-62.5488 53.125-52.2461C53.125-41.9922 61.4258-33.6426 71.7285-33.6426ZM71.7285-40.2344C65.0879-40.2344 59.668-45.6055 59.668-52.2461C59.668-58.9355 65.0391-64.3066 71.7285-64.3066C78.418-64.3066 83.7891-58.9355 83.7891-52.2461C83.7891-45.6055 78.3691-40.2344 71.7285-40.2344Z"/>
   <path class="monochrome-5 monochrome-6 multicolor-5:tintColor multicolor-6:tintColor hierarchical-5:primary hierarchical-6:primary SFSymbolsPreviewWireframe" d="M56.25-21.875C64.7461-21.875 71.6309-28.7109 71.6309-37.2559C71.6309-45.752 64.7461-52.5879 56.25-52.5879C47.7539-52.5879 40.8691-45.752 40.8691-37.2559C40.8691-28.7109 47.7539-21.875 56.25-21.875Z"/>
   <path class="monochrome-6 multicolor-6:tintColor hierarchical-6:primary SFSymbolsPreviewWireframe" d="M56.25-28.4668C51.3672-28.4668 47.4609-32.373 47.4609-37.2559C47.4609-42.1387 51.3672-46.0449 56.25-46.0449C61.1328-46.0449 65.0391-42.1387 65.0391-37.2559C65.0391-32.373 61.1328-28.4668 56.25-28.4668Z"/>
  </g>
  <g id="Ultralight-S" transform="matrix(1 0 0 1 512.025 696)">
   <path class="monochrome-0 multicolor-0:tintColor hierarchical-0:secondary SFSymbolsPreviewWireframe" d="M72.3941 2.95606C72.7735 2.95606 73.1006 2.68116 73.1563 2.25293C74.8243-7.95751 74.5586-7.458 84.9497-9.5371C85.3326-9.59618 85.6075-9.87451 85.6075-10.2993C85.6075-10.7275 85.3326-11.0059 84.9463-11.1069C74.5689-13.0996 74.8208-12.666 73.1563-22.8481C73.1041-23.2798 72.7769-23.5547 72.3941-23.5547C71.9624-23.5547 71.6387-23.2764 71.5865-22.8447C69.9253-12.6377 70.1773-13.1372 59.835-11.1069C59.4068-11.0024 59.1353-10.7241 59.1353-10.2993C59.1353-9.87109 59.4102-9.59618 59.8487-9.5371C70.1773-7.48535 69.9253-7.96093 71.5865 2.24609C71.6387 2.67774 71.9624 2.95606 72.3941 2.95606Z"/>
   <path class="monochrome-1 multicolor-1:tintColor hierarchical-1:secondary SFSymbolsPreviewWireframe" d="M32.7212-51.7515C33.0869-51.7515 33.355-52.0127 33.4107-52.3819C34.771-60.7026 34.5337-60.2383 42.9453-61.9165C43.3179-62.0176 43.5757-62.2402 43.5757-62.606C43.5757-62.9751 43.3179-63.2432 42.9453-63.3408C34.5337-64.9771 34.771-64.5581 33.4107-72.8789C33.355-73.2481 33.0869-73.5093 32.7212-73.5093C32.3521-73.5093 32.042-73.2481 31.9863-72.8789C30.626-64.5581 30.8633-64.9771 22.4517-63.3408C22.0791-63.2432 21.8633-62.9751 21.8633-62.606C21.8633-62.2402 22.0791-62.0176 22.4517-61.9165C30.8633-60.2383 30.626-60.7026 31.9863-52.3819C32.042-52.0127 32.3521-51.7515 32.7212-51.7515Z"/>
   <path class="monochrome-2 multicolor-2:tintColor hierarchical-2:primary SFSymbolsPreviewWireframe" d="M32.2217 0.393575C37.0606 0.393575 41.0035-3.59813 41.0035-8.44043C41.0035-13.1851 37.0152-17.2222 32.2217-17.2222C27.3794-17.2222 23.4331-13.2305 23.4331-8.44043C23.4331-3.59813 27.3794 0.393575 32.2217 0.393575ZM32.2217-1.83888C28.5406-1.83888 25.6202-4.80469 25.6202-8.44043C25.6202-12.0693 28.5894-15.0351 32.2217-15.0351C35.8052-15.0351 38.771-12.0693 38.771-8.44043C38.771-4.85352 35.8052-1.83888 32.2217-1.83888Z"/>
   <path class="monochrome-3 multicolor-3:tintColor hierarchical-3:primary SFSymbolsPreviewWireframe" d="M17.8638-33.0166C22.2178-33.0166 25.9131-36.6665 25.9131-41.0693C25.9131-45.4722 22.2178-49.1187 17.8638-49.1187C13.3701-49.1187 9.76562-45.5176 9.76562-41.0693C9.76562-36.6211 13.3701-33.0166 17.8638-33.0166ZM17.8638-35.2036C14.5767-35.2036 11.9527-37.8731 11.9527-41.0693C11.9527-44.311 14.6221-46.9351 17.8638-46.9351C21.0567-46.9351 23.7261-44.311 23.7261-41.0693C23.7261-37.8731 21.0567-35.2036 17.8638-35.2036Z"/>
   <path class="monochrome-4 multicolor-4:tintColor hierarchical-4:primary SFSymbolsPreviewWireframe" d="M67.0059-34.7778C75.7193-34.7778 82.7974-41.7651 82.7974-50.4297C82.7974-59.1431 75.7193-66.2632 67.0059-66.2632C58.2471-66.2632 51.1724-59.1431 51.1724-50.4297C51.1724-41.7651 58.2471-34.7778 67.0059-34.7778ZM67.0059-36.9195C59.4571-36.9195 53.356-42.9717 53.356-50.4297C53.356-58.0274 59.4082-64.0796 67.0059-64.0796C74.5581-64.0796 80.6104-58.0274 80.6104-50.4297C80.6104-42.9717 74.5093-36.9195 67.0059-36.9195Z"/>
   <path class="monochrome-5 monochrome-6 multicolor-5:tintColor multicolor-6:tintColor hierarchical-5:primary hierarchical-6:primary SFSymbolsPreviewWireframe" d="M52.2085-23.4643C59.1607-23.4643 64.8648-29.0742 64.8648-36.0752C64.8648-43.1182 59.1607-48.7735 52.2085-48.7735C45.211-48.7735 39.5523-43.1182 39.5523-36.0752C39.5523-29.0742 45.211-23.4643 52.2085-23.4643Z"/>
   <path class="monochrome-6 multicolor-6:tintColor hierarchical-6:primary SFSymbolsPreviewWireframe" d="M52.2085-25.6514C46.4175-25.6514 41.7393-30.2842 41.7393-36.0752C41.7393-41.9116 46.4175-46.5898 52.2085-46.5898C57.9541-46.5898 62.6778-41.9116 62.6778-36.0752C62.6778-30.2842 57.9541-25.6514 52.2085-25.6514Z"/>
  </g>
 </g>
</svg>
