<?xml version="1.0" encoding="UTF-8"?>
<!--Generator: Apple Native CoreSVG 341-->
<!DOCTYPE svg
PUBLIC "-//W3C//DTD SVG 1.1//EN"
       "http://www.w3.org/Graphics/SVG/1.1/DTD/svg11.dtd">
<svg version="1.1" xmlns="http://www.w3.org/2000/svg" xmlns:xlink="http://www.w3.org/1999/xlink" viewBox="0 0 3300 2200">
 <!--glyph: "1002F4", point size: 100.0, font version: "21.1d1e1", template writer version: "138.0.0"-->
 <style>.defaults {-sfsymbols-draw-reverses-motion-groups:false}

.monochrome-0 {-sfsymbols-motion-group:2;-sfsymbols-layer-tags:list.number}
.monochrome-1 {-sfsymbols-motion-group:2;-sfsymbols-layer-tags:list.number}
.monochrome-2 {-sfsymbols-motion-group:1;-sfsymbols-layer-tags:list.number}
.monochrome-3 {-sfsymbols-motion-group:1;-sfsymbols-layer-tags:list.number}
.monochrome-4 {-sfsymbols-motion-group:0;-sfsymbols-layer-tags:list.number}
.monochrome-5 {-sfsymbols-motion-group:0;-sfsymbols-layer-tags:list.number}

.multicolor-0:secondaryLabelColor {-sfsymbols-motion-group:2;-sfsymbols-layer-tags:list.number}
.multicolor-1:labelColor {-sfsymbols-motion-group:2;-sfsymbols-layer-tags:list.number}
.multicolor-2:secondaryLabelColor {-sfsymbols-motion-group:1;-sfsymbols-layer-tags:list.number}
.multicolor-3:labelColor {-sfsymbols-motion-group:1;-sfsymbols-layer-tags:list.number}
.multicolor-4:secondaryLabelColor {-sfsymbols-motion-group:0;-sfsymbols-layer-tags:list.number}
.multicolor-5:labelColor {-sfsymbols-motion-group:0;-sfsymbols-layer-tags:list.number}

.hierarchical-0:secondary {-sfsymbols-motion-group:2;-sfsymbols-layer-tags:list.number}
.hierarchical-1:primary {-sfsymbols-motion-group:2;-sfsymbols-layer-tags:list.number}
.hierarchical-2:secondary {-sfsymbols-motion-group:1;-sfsymbols-layer-tags:list.number}
.hierarchical-3:primary {-sfsymbols-motion-group:1;-sfsymbols-layer-tags:list.number}
.hierarchical-4:secondary {-sfsymbols-motion-group:0;-sfsymbols-layer-tags:list.number}
.hierarchical-5:primary {-sfsymbols-motion-group:0;-sfsymbols-layer-tags:list.number}

.SFSymbolsPreviewWireframe {fill:none;opacity:1.0;stroke:black;stroke-width:0.5}
</style>
 <g id="Notes">
  <rect height="2200" id="artboard" style="fill:white;opacity:1" width="3300" x="0" y="0"/>
  <line style="fill:none;stroke:black;opacity:1;stroke-width:0.5;" x1="263" x2="3036" y1="292" y2="292"/>
  <text style="stroke:none;fill:black;font-family:sans-serif;font-size:13;font-weight:bold;" transform="matrix(1 0 0 1 263 322)">Weight/Scale Variations</text>
  <text style="stroke:none;fill:black;font-family:sans-serif;font-size:13;text-anchor:middle;" transform="matrix(1 0 0 1 559.711 322)">Ultralight</text>
  <text style="stroke:none;fill:black;font-family:sans-serif;font-size:13;text-anchor:middle;" transform="matrix(1 0 0 1 856.422 322)">Thin</text>
  <text style="stroke:none;fill:black;font-family:sans-serif;font-size:13;text-anchor:middle;" transform="matrix(1 0 0 1 1153.13 322)">Light</text>
  <text style="stroke:none;fill:black;font-family:sans-serif;font-size:13;text-anchor:middle;" transform="matrix(1 0 0 1 1449.84 322)">Regular</text>
  <text style="stroke:none;fill:black;font-family:sans-serif;font-size:13;text-anchor:middle;" transform="matrix(1 0 0 1 1746.56 322)">Medium</text>
  <text style="stroke:none;fill:black;font-family:sans-serif;font-size:13;text-anchor:middle;" transform="matrix(1 0 0 1 2043.27 322)">Semibold</text>
  <text style="stroke:none;fill:black;font-family:sans-serif;font-size:13;text-anchor:middle;" transform="matrix(1 0 0 1 2339.98 322)">Bold</text>
  <text style="stroke:none;fill:black;font-family:sans-serif;font-size:13;text-anchor:middle;" transform="matrix(1 0 0 1 2636.69 322)">Heavy</text>
  <text style="stroke:none;fill:black;font-family:sans-serif;font-size:13;text-anchor:middle;" transform="matrix(1 0 0 1 2933.4 322)">Black</text>
  <line style="fill:none;stroke:black;opacity:1;stroke-width:0.5;" x1="263" x2="3036" y1="1903" y2="1903"/>
  <g transform="matrix(0.2 0 0 0.2 263 1933)">
   <path d="m46.2402 4.15039c21.7773 0 39.4531-17.627 39.4531-39.4043s-17.6758-39.4043-39.4531-39.4043c-21.7285 0-39.4043 17.627-39.4043 39.4043s17.6758 39.4043 39.4043 39.4043Zm0-7.42188c-17.6758 0-31.9336-14.3066-31.9336-31.9824s14.2578-31.9824 31.9336-31.9824 31.9824 14.3066 31.9824 31.9824-14.3066 31.9824-31.9824 31.9824Zm3.61328-17.7734v-28.4668c0-2.24609-1.46484-3.75977-3.71094-3.75977-2.14844 0-3.61328 1.51367-3.61328 3.75977v28.4668c0 2.19727 1.46484 3.71094 3.61328 3.71094 2.24609 0 3.71094-1.51367 3.71094-3.71094Zm-17.8223-10.5957h28.418c2.19727 0 3.71094-1.46484 3.71094-3.61328 0-2.19727-1.51367-3.71094-3.71094-3.71094h-28.418c-2.24609 0-3.75977 1.51367-3.75977 3.71094 0 2.14844 1.51367 3.61328 3.75977 3.61328Z"/>
  </g>
  <g transform="matrix(0.2 0 0 0.2 281.506 1933)">
   <path d="m58.5449 14.5508c27.4902 0 49.8047-22.3145 49.8047-49.8047s-22.3145-49.8047-49.8047-49.8047-49.8047 22.3145-49.8047 49.8047 22.3145 49.8047 49.8047 49.8047Zm0-8.30078c-22.9492 0-41.5039-18.5547-41.5039-41.5039s18.5547-41.5039 41.5039-41.5039 41.5039 18.5547 41.5039 41.5039-18.5547 41.5039-41.5039 41.5039Zm4.05273-23.0957v-36.9141c0-2.49023-1.70898-4.19922-4.15039-4.19922-2.39258 0-4.05273 1.70898-4.05273 4.19922v36.9141c0 2.44141 1.66016 4.15039 4.05273 4.15039 2.44141 0 4.15039-1.66016 4.15039-4.15039Zm-22.5586-14.4043h36.9629c2.44141 0 4.15039-1.61133 4.15039-4.00391 0-2.44141-1.70898-4.15039-4.15039-4.15039h-36.9629c-2.49023 0-4.15039 1.70898-4.15039 4.15039 0 2.39258 1.66016 4.00391 4.15039 4.00391Z"/>
  </g>
  <g transform="matrix(0.2 0 0 0.2 304.924 1933)">
   <path d="m74.8535 28.3203c35.1074 0 63.623-28.4668 63.623-63.5742s-28.5156-63.623-63.623-63.623-63.5742 28.5156-63.5742 63.623 28.4668 63.5742 63.5742 63.5742Zm0-9.08203c-30.127 0-54.4922-24.3652-54.4922-54.4922s24.3652-54.4922 54.4922-54.4922 54.4922 24.3652 54.4922 54.4922-24.3652 54.4922-54.4922 54.4922Zm4.44336-30.3223v-48.4863c0-2.73438-1.85547-4.63867-4.54102-4.63867-2.58789 0-4.44336 1.9043-4.44336 4.63867v48.4863c0 2.68555 1.85547 4.58984 4.44336 4.58984 2.68555 0 4.54102-1.85547 4.54102-4.58984Zm-28.7109-19.7754h48.4863c2.68555 0 4.58984-1.80664 4.58984-4.39453 0-2.73438-1.85547-4.58984-4.58984-4.58984h-48.4863c-2.73438 0-4.58984 1.85547-4.58984 4.58984 0 2.58789 1.85547 4.39453 4.58984 4.39453Z"/>
  </g>
  <text style="stroke:none;fill:black;font-family:sans-serif;font-size:13;font-weight:bold;" transform="matrix(1 0 0 1 263 1953)">Design Variations</text>
  <text style="stroke:none;fill:black;font-family:sans-serif;font-size:13;" transform="matrix(1 0 0 1 263 1971)">Symbols are supported in up to nine weights and three scales.</text>
  <text style="stroke:none;fill:black;font-family:sans-serif;font-size:13;" transform="matrix(1 0 0 1 263 1989)">For optimal layout with text and other symbols, vertically align</text>
  <text style="stroke:none;fill:black;font-family:sans-serif;font-size:13;" transform="matrix(1 0 0 1 263 2007)">symbols with the adjacent text.</text>
  <line style="fill:none;stroke:#00AEEF;stroke-width:0.5;opacity:1.0;" x1="776" x2="776" y1="1919" y2="1933"/>
  <g transform="matrix(0.2 0 0 0.2 776 1933)">
   <path d="m16.5527 0.78125c2.58789 0 3.85742-0.976562 4.78516-3.71094l20.5566-57.5195h0.244141l20.6055 57.5195c0.927734 2.73438 2.19727 3.71094 4.73633 3.71094 2.58789 0 4.24805-1.5625 4.24805-4.00391 0-0.830078-0.146484-1.61133-0.537109-2.63672l-22.9004-60.9863c-1.12305-2.97852-3.125-4.49219-6.25-4.49219-3.02734 0-5.07812 1.46484-6.15234 4.44336l-22.9004 61.084c-0.390625 1.02539-0.537109 1.80664-0.537109 2.63672 0 2.44141 1.5625 3.95508 4.10156 3.95508Zm10.2051-20.9473h30.6641c2.00195 0 3.66211-1.66016 3.66211-3.66211 0-2.05078-1.66016-3.66211-3.66211-3.66211h-30.6641c-2.00195 0-3.66211 1.61133-3.66211 3.66211 0 2.00195 1.66016 3.66211 3.66211 3.66211Z"/>
  </g>
  <line style="fill:none;stroke:#00AEEF;stroke-width:0.5;opacity:1.0;" x1="792.836" x2="792.836" y1="1919" y2="1933"/>
  <text style="stroke:none;fill:black;font-family:sans-serif;font-size:13;font-weight:bold;" transform="matrix(1 0 0 1 776 1953)">Margins</text>
  <text style="stroke:none;fill:black;font-family:sans-serif;font-size:13;" transform="matrix(1 0 0 1 776 1971)">Leading and trailing margins on the left and right side of each symbol</text>
  <text style="stroke:none;fill:black;font-family:sans-serif;font-size:13;" transform="matrix(1 0 0 1 776 1989)">can be adjusted by modifying the x-location of the margin guidelines.</text>
  <text style="stroke:none;fill:black;font-family:sans-serif;font-size:13;" transform="matrix(1 0 0 1 776 2007)">Modifications are automatically applied proportionally to all</text>
  <text style="stroke:none;fill:black;font-family:sans-serif;font-size:13;" transform="matrix(1 0 0 1 776 2025)">scales and weights.</text>
  <g transform="matrix(0.2 0 0 0.2 1289 1933)">
   <path d="m14.209 13.1348 7.86133 7.86133c4.29688 4.39453 9.32617 4.10156 13.8672-1.02539l60.6934-68.2129-4.88281-4.88281-60.2539 67.6758c-1.80664 1.95312-3.4668 2.44141-5.81055 0.0976562l-5.17578-5.12695c-2.29492-2.29492-1.80664-3.95508 0.195312-5.81055l67.4805-62.1582-4.88281-4.83398-68.0664 62.5977c-4.98047 4.58984-5.32227 9.47266-1.02539 13.8184Zm44.873-97.4609c-2.05078 2.00195-2.24609 4.88281-1.07422 6.78711 1.12305 1.80664 3.4668 3.02734 6.5918 2.24609 5.85938-1.66016 12.5977-2.39258 18.8965 0.927734l-2.68555 7.12891c-1.61133 4.00391-0.732422 6.88477 1.70898 9.42383l10.2539 10.3027c2.34375 2.39258 4.54102 2.44141 7.08008 1.95312l4.44336-0.732422 2.58789 2.53906-0.195312 2.24609c-0.0976562 2.29492 0.537109 4.29688 2.7832 6.49414l3.36914 3.32031c2.29492 2.29492 5.51758 2.49023 7.8125 0.195312l12.9883-13.0371c2.29492-2.34375 2.14844-5.37109-0.195312-7.66602l-3.41797-3.41797c-2.19727-2.19727-4.05273-3.02734-6.34766-2.88086l-2.34375 0.244141-2.44141-2.44141 1.02539-4.6875c0.634766-2.73438-0.244141-4.98047-2.88086-7.61719l-11.2793-11.1816c-12.9395-12.8418-35.5957-11.0352-46.6797-0.146484Zm7.08008 2.05078c8.78906-6.39648 25.9766-5.66406 33.6914 1.95312l12.3047 12.207c1.02539 1.02539 1.2207 1.80664 0.927734 3.32031l-1.46484 6.64062 6.73828 6.68945 4.39453-0.244141c1.12305-0.0488281 1.51367 0.0488281 2.34375 0.878906l2.53906 2.49023-10.8398 10.8398-2.49023-2.49023c-0.830078-0.878906-0.976562-1.2207-0.927734-2.39258l0.292969-4.3457-6.68945-6.73828-6.83594 1.17188c-1.41602 0.292969-2.05078 0.195312-3.17383-0.878906l-8.93555-8.88672c-1.07422-1.02539-1.17188-1.70898-0.488281-3.36914l4.58984-11.4746c-6.10352-6.34766-17.041-7.51953-25.5859-4.58984-0.683594 0.244141-0.927734-0.390625-0.390625-0.78125Z"/>
  </g>
  <text style="stroke:none;fill:black;font-family:sans-serif;font-size:13;font-weight:bold;" transform="matrix(1 0 0 1 1289 1953)">Exporting</text>
  <text style="stroke:none;fill:black;font-family:sans-serif;font-size:13;" transform="matrix(1 0 0 1 1289 1971)">Symbols should be outlined when exporting to ensure the</text>
  <text style="stroke:none;fill:black;font-family:sans-serif;font-size:13;" transform="matrix(1 0 0 1 1289 1989)">design is preserved when submitting to Xcode.</text>
  <text id="template-version" style="stroke:none;fill:black;font-family:sans-serif;font-size:13;text-anchor:end;" transform="matrix(1 0 0 1 3036 1933)">Template v.7.0</text>
  <text style="stroke:none;fill:black;font-family:sans-serif;font-size:13;text-anchor:end;" transform="matrix(1 0 0 1 3036 1951)">Requires Xcode 26 or greater</text>
  <text id="descriptive-name" style="stroke:none;fill:black;font-family:sans-serif;font-size:13;text-anchor:end;" transform="matrix(1 0 0 1 3036 1969)">Generated from list.number</text>
  <text style="stroke:none;fill:black;font-family:sans-serif;font-size:13;text-anchor:end;" transform="matrix(1 0 0 1 3036 1987)">Typeset at 100.0 points</text>
  <text style="stroke:none;fill:black;font-family:sans-serif;font-size:13;" transform="matrix(1 0 0 1 263 726)">Small</text>
  <text style="stroke:none;fill:black;font-family:sans-serif;font-size:13;" transform="matrix(1 0 0 1 263 1156)">Medium</text>
  <text style="stroke:none;fill:black;font-family:sans-serif;font-size:13;" transform="matrix(1 0 0 1 263 1586)">Large</text>
 </g>
 <g id="Guides">
  <g id="H-reference" style="fill:#27AAE1;stroke:none;" transform="matrix(1 0 0 1 339 696)">
   <path d="M0.993654 0L3.63775 0L29.3281-67.1323L30.0303-67.1323L30.0303-70.459L28.1226-70.459ZM11.6885-24.4799L46.9815-24.4799L46.2315-26.7285L12.4385-26.7285ZM55.1196 0L57.7637 0L30.6382-70.459L29.4326-70.459L29.4326-67.1323Z"/>
  </g>
  <line id="Baseline-S" style="fill:none;stroke:#27AAE1;opacity:1;stroke-width:0.5;" x1="263" x2="3036" y1="696" y2="696"/>
  <line id="Capline-S" style="fill:none;stroke:#27AAE1;opacity:1;stroke-width:0.5;" x1="263" x2="3036" y1="625.541" y2="625.541"/>
  <g id="H-reference" style="fill:#27AAE1;stroke:none;" transform="matrix(1 0 0 1 339 1126)">
   <path d="M0.993654 0L3.63775 0L29.3281-67.1323L30.0303-67.1323L30.0303-70.459L28.1226-70.459ZM11.6885-24.4799L46.9815-24.4799L46.2315-26.7285L12.4385-26.7285ZM55.1196 0L57.7637 0L30.6382-70.459L29.4326-70.459L29.4326-67.1323Z"/>
  </g>
  <line id="Baseline-M" style="fill:none;stroke:#27AAE1;opacity:1;stroke-width:0.5;" x1="263" x2="3036" y1="1126" y2="1126"/>
  <line id="Capline-M" style="fill:none;stroke:#27AAE1;opacity:1;stroke-width:0.5;" x1="263" x2="3036" y1="1055.54" y2="1055.54"/>
  <g id="H-reference" style="fill:#27AAE1;stroke:none;" transform="matrix(1 0 0 1 339 1556)">
   <path d="M0.993654 0L3.63775 0L29.3281-67.1323L30.0303-67.1323L30.0303-70.459L28.1226-70.459ZM11.6885-24.4799L46.9815-24.4799L46.2315-26.7285L12.4385-26.7285ZM55.1196 0L57.7637 0L30.6382-70.459L29.4326-70.459L29.4326-67.1323Z"/>
  </g>
  <line id="Baseline-L" style="fill:none;stroke:#27AAE1;opacity:1;stroke-width:0.5;" x1="263" x2="3036" y1="1556" y2="1556"/>
  <line id="Capline-L" style="fill:none;stroke:#27AAE1;opacity:1;stroke-width:0.5;" x1="263" x2="3036" y1="1485.54" y2="1485.54"/>
  <line id="right-margin-Black-S" style="fill:none;stroke:#00AEEF;stroke-width:0.5;opacity:1.0;" x1="2987.11" x2="2987.11" y1="600.785" y2="720.121"/>
  <line id="left-margin-Black-S" style="fill:none;stroke:#00AEEF;stroke-width:0.5;opacity:1.0;" x1="2879.69" x2="2879.69" y1="600.785" y2="720.121"/>
  <line id="right-margin-Regular-S" style="fill:none;stroke:#00AEEF;stroke-width:0.5;opacity:1.0;" x1="1498.55" x2="1498.55" y1="600.785" y2="720.121"/>
  <line id="left-margin-Regular-S" style="fill:none;stroke:#00AEEF;stroke-width:0.5;opacity:1.0;" x1="1401.14" x2="1401.14" y1="600.785" y2="720.121"/>
  <line id="right-margin-Ultralight-S" style="fill:none;stroke:#00AEEF;stroke-width:0.5;opacity:1.0;" x1="606.215" x2="606.215" y1="600.785" y2="720.121"/>
  <line id="left-margin-Ultralight-S" style="fill:none;stroke:#00AEEF;stroke-width:0.5;opacity:1.0;" x1="513.207" x2="513.207" y1="600.785" y2="720.121"/>
 </g>
 <g id="Symbols">
  <g id="Black-S" transform="matrix(1 0 0 1 2879.69 696)">
   <path class="monochrome-0 multicolor-0:secondaryLabelColor hierarchical-0:secondary SFSymbolsPreviewWireframe" d="M42.7246-3.61328L91.5527-3.61328C94.9707-3.61328 97.6562-6.64062 97.6562-9.96094C97.6562-13.4277 95.0195-16.3086 91.5527-16.3086L42.7246-16.3086C39.3066-16.3086 36.6211-13.3301 36.6211-9.96094C36.6211-6.73828 39.3555-3.61328 42.7246-3.61328Z" data-clipstroke-keyframes="0 0 0 0.85861635 0.00069761276 0 1 0.35838842 0.50162363"/>
   <path class="monochrome-1 multicolor-1:labelColor hierarchical-1:primary SFSymbolsPreviewWireframe" d="M17.627 0.0488281C23.2422 0.0488281 26.3672-2.19727 26.3672-5.9082C26.3672-8.30078 24.707-9.86328 21.7773-10.1074L21.7773-10.2539C23.6816-10.6445 25.5371-12.1582 25.5371-14.6484C25.5371-18.1641 21.9727-19.8242 17.627-19.8242C14.3066-19.8242 10.3027-18.5059 10.3027-15.332C10.3027-13.9648 11.2793-12.9883 12.9395-12.9883C13.916-12.9883 14.4043-13.3301 15.0879-13.8672C16.1621-14.7461 16.8945-14.9902 17.627-14.9902C18.6035-14.9902 19.4336-14.5996 19.4336-13.623C19.4336-12.7441 18.7012-12.207 17.4316-12.207L16.7969-12.207C15.625-12.207 14.7949-11.4746 14.7949-10.0586C14.7949-8.64258 15.5762-7.91016 16.7969-7.91016L17.4316-7.91016C18.75-7.91016 19.4824-7.42188 19.5312-6.44531C19.5801-5.61523 18.7012-5.07812 17.627-5.07812C16.2598-5.07812 15.2344-6.00586 14.502-6.44531C14.0137-6.73828 13.4766-7.12891 12.5977-7.12891C10.9375-7.12891 9.76562-6.15234 9.76562-4.54102C9.76562-1.66016 13.7695 0.0488281 17.627 0.0488281Z"/>
   <path class="monochrome-2 multicolor-2:secondaryLabelColor hierarchical-2:secondary SFSymbolsPreviewWireframe" d="M42.7246-28.9062L91.5527-28.9062C94.9707-28.9062 97.6562-31.9336 97.6562-35.2539C97.6562-38.7207 95.0195-41.6016 91.5527-41.6016L42.7246-41.6016C39.3066-41.6016 36.6211-38.623 36.6211-35.2539C36.6211-32.0312 39.3555-28.9062 42.7246-28.9062Z" data-clipstroke-keyframes="0 0 0 0.8586166 0.00069761276 0 1 0.35617352 0.49904346"/>
   <path class="monochrome-3 multicolor-3:labelColor hierarchical-3:primary SFSymbolsPreviewWireframe" d="M12.5977-25.5859L23.584-25.5859C25.0977-25.5859 26.2207-26.4648 26.2207-28.0762C26.2207-29.541 25.0977-30.5176 23.584-30.5176L18.6035-30.5176L18.6035-30.6641L21.582-32.959C24.2188-35.0098 25.6836-36.2305 25.6836-38.9648C25.6836-42.5781 22.5586-44.8242 17.5781-44.8242C13.3301-44.8242 10.3027-42.8711 10.3027-40.1855C10.3027-38.623 11.3281-37.7441 13.0371-37.7441C14.0137-37.7441 14.7461-38.0859 15.6738-38.9648C16.4062-39.6484 16.8945-39.9414 17.6758-39.9414C18.5547-39.9414 19.2383-39.4043 19.2383-38.4766C19.2383-37.6465 18.7012-37.0605 16.6504-35.4004L11.377-31.1523C10.4004-30.3711 9.96094-29.4922 9.96094-28.2715C9.96094-26.709 10.9863-25.5859 12.5977-25.5859Z"/>
   <path class="monochrome-4 multicolor-4:secondaryLabelColor hierarchical-4:secondary SFSymbolsPreviewWireframe" d="M42.7246-54.1992L91.5527-54.1992C94.9707-54.1992 97.6562-57.2266 97.6562-60.5469C97.6562-64.0137 95.0195-66.8945 91.5527-66.8945L42.7246-66.8945C39.3066-66.8945 36.6211-63.916 36.6211-60.5469C36.6211-57.3242 39.3555-54.1992 42.7246-54.1992Z" data-clipstroke-keyframes="0 0 0 0.8586166 0.000697732 0 1 0.35838842 0.5016234"/>
   <path class="monochrome-5 multicolor-5:labelColor hierarchical-5:primary SFSymbolsPreviewWireframe" d="M19.3848-50.5371C21.3379-50.5371 22.7051-51.6113 22.7051-54.1016L22.7051-66.9922C22.7051-69.1406 21.1426-70.459 18.9453-70.459C17.2852-70.459 16.1621-69.9219 14.7949-69.043L12.0605-67.2852C11.0352-66.6504 10.6445-66.0156 10.6445-64.9414C10.6445-63.5254 11.5723-62.5977 12.7441-62.6953C13.2812-62.7441 13.623-62.7441 14.4043-63.2324L15.8691-64.209L16.0156-64.209L16.0156-54.1016C16.0156-51.6113 17.3828-50.5371 19.3848-50.5371Z"/>
  </g>
  <g id="Regular-S" transform="matrix(1 0 0 1 1401.14 696)">
   <path class="monochrome-0 multicolor-0:secondaryLabelColor hierarchical-0:secondary SFSymbolsPreviewWireframe" d="M35.4004-8.39844L84.082-8.39844C86.0352-8.39844 87.6465-9.96094 87.6465-11.9141C87.6465-13.8672 86.0352-15.4297 84.082-15.4297L35.4004-15.4297C33.4473-15.4297 31.8848-13.8672 31.8848-11.9141C31.8848-9.96094 33.4473-8.39844 35.4004-8.39844Z" data-clipstroke-keyframes="0 0 0 0.90827465 0.0007953644 0 1 0.4080019 0.5010681"/>
   <path class="monochrome-1 multicolor-1:labelColor hierarchical-1:primary SFSymbolsPreviewWireframe" d="M16.6992-3.61328C21.4355-3.61328 24.2188-5.66406 24.2188-8.98438C24.2188-11.1816 22.6562-12.5977 20.0195-12.8418L20.0195-12.9395C21.9238-13.2812 23.5352-14.5508 23.5352-16.7969C23.5352-19.873 20.5566-21.4844 16.6504-21.4844C13.5742-21.4844 10.2051-20.0684 10.2051-17.4316C10.2051-16.3086 11.0352-15.4785 12.3047-15.4785C13.1836-15.4785 13.5742-15.8203 14.1602-16.4062C15.0879-17.334 15.7715-17.5781 16.6504-17.5781C17.7734-17.5781 18.6035-17.0898 18.6035-16.0156C18.6035-14.9414 17.7734-14.4531 16.2598-14.4531L15.8691-14.4531C14.7461-14.4531 14.0137-13.916 14.0137-12.7441C14.0137-11.6211 14.6973-10.9863 15.8691-10.9863L16.3086-10.9863C17.9688-10.9863 18.7988-10.498 18.7988-9.375C18.7988-8.34961 17.9199-7.66602 16.6992-7.66602C15.332-7.66602 14.4043-8.49609 13.6719-9.08203C13.2324-9.47266 12.8418-9.81445 12.0605-9.81445C10.6934-9.81445 9.76562-9.0332 9.76562-7.76367C9.76562-5.07812 13.4766-3.61328 16.6992-3.61328Z"/>
   <path class="monochrome-2 multicolor-2:secondaryLabelColor hierarchical-2:secondary SFSymbolsPreviewWireframe" d="M35.4004-31.6895L84.082-31.6895C86.0352-31.6895 87.6465-33.252 87.6465-35.2051C87.6465-37.1582 86.0352-38.7207 84.082-38.7207L35.4004-38.7207C33.4473-38.7207 31.8848-37.1582 31.8848-35.2051C31.8848-33.252 33.4473-31.6895 35.4004-31.6895Z" data-clipstroke-keyframes="0 0 0 0.90827465 0.0007953644 0 1 0.40644288 0.4995091"/>
   <path class="monochrome-3 multicolor-3:labelColor hierarchical-3:primary SFSymbolsPreviewWireframe" d="M12.1094-27.5879L22.1191-27.5879C23.2422-27.5879 24.1211-28.3691 24.1211-29.541C24.1211-30.7617 23.2422-31.543 22.1191-31.543L16.8457-31.543L16.8457-31.6406L19.8242-33.9844C22.4609-36.084 23.584-37.3535 23.584-39.6973C23.584-42.8223 20.8984-44.9707 16.6016-44.9707C12.8418-44.9707 10.1074-43.0664 10.1074-40.5273C10.1074-39.2578 10.9375-38.5254 12.4023-38.5254C13.2812-38.5254 13.916-38.8184 14.502-39.6973C15.0879-40.5762 15.7227-41.0156 16.6992-41.0156C17.7734-41.0156 18.5059-40.332 18.5059-39.3066C18.5059-38.4766 18.0664-37.6953 16.0645-36.084L10.9863-32.0801C10.2051-31.3965 9.86328-30.6641 9.86328-29.7852C9.86328-28.4668 10.7422-27.5879 12.1094-27.5879Z"/>
   <path class="monochrome-4 multicolor-4:secondaryLabelColor hierarchical-4:secondary SFSymbolsPreviewWireframe" d="M35.4004-54.9805L84.082-54.9805C86.0352-54.9805 87.6465-56.543 87.6465-58.4961C87.6465-60.4492 86.0352-62.0117 84.082-62.0117L35.4004-62.0117C33.4473-62.0117 31.8848-60.4492 31.8848-58.4961C31.8848-56.543 33.4473-54.9805 35.4004-54.9805Z" data-clipstroke-keyframes="0 0 0 0.90827453 0.0007953644 0 1 0.40800202 0.50106823"/>
   <path class="monochrome-5 multicolor-5:labelColor hierarchical-5:primary SFSymbolsPreviewWireframe" d="M18.457-50.8789C20.0195-50.8789 21.0938-51.709 21.0938-53.6133L21.0938-65.918C21.0938-67.6758 19.873-68.75 18.1152-68.75C16.6504-68.75 15.7715-68.2617 14.7461-67.627L12.0605-65.7227C11.2793-65.1855 10.8398-64.6973 10.8398-63.8184C10.8398-62.7441 11.6699-62.0605 12.5977-62.0605C13.0859-62.0605 13.3301-62.1582 13.9648-62.5977L15.6738-63.6719L15.7227-63.6719L15.7227-53.6133C15.7227-51.709 16.7969-50.8789 18.457-50.8789Z"/>
  </g>
  <g id="Ultralight-S" transform="matrix(1 0 0 1 513.207 696)">
   <path class="monochrome-0 multicolor-0:secondaryLabelColor hierarchical-0:secondary SFSymbolsPreviewWireframe" d="M29.1338-11.7134L82.1294-11.7134C82.7657-11.7134 83.2417-12.1406 83.2417-12.7768C83.2417-13.4585 82.7657-13.8858 82.1294-13.8858L29.1338-13.8858C28.4976-13.8858 28.0249-13.4585 28.0249-12.7768C28.0249-12.1406 28.4976-11.7134 29.1338-11.7134Z" data-clipstroke-keyframes="0 0 0 0.96966887 0.000916481 0 1 0.46964884 0.50047874"/>
   <path class="monochrome-1 multicolor-1:labelColor hierarchical-1:primary SFSymbolsPreviewWireframe" d="M15.3823-4.24902C19.1196-4.24902 21.4942-6.02734 21.4942-8.84815C21.4942-10.773 20.2949-12.3252 17.6128-12.5239L17.6128-12.6216C19.835-13.0542 20.9014-14.3691 20.9014-16.2974C20.9014-18.647 18.6948-20.2129 15.3789-20.2129C12.8477-20.2129 10.0688-18.8423 10.0688-16.7959C10.0688-15.9907 10.6719-15.5239 11.3511-15.5239C11.9121-15.5239 12.2119-15.7295 12.6162-16.3608C13.3169-17.4248 14.1367-17.8506 15.3335-17.8506C16.9107-17.8506 17.877-17.0444 17.877-15.6978C17.877-14.4873 16.7744-13.6812 14.9883-13.6812L14.189-13.6812C13.4746-13.6812 12.9238-13.144 12.9238-12.4263C12.9238-11.7119 13.4712-11.2134 14.189-11.2134L15.0371-11.2134C17.0606-11.2134 18.2085-10.4072 18.2085-9.01172C18.2085-7.66846 17.0117-6.75782 15.3823-6.75782C14.0151-6.75782 12.9966-7.22462 12.3096-8.35547C11.9609-8.92774 11.5703-9.17872 11.1524-9.17872C10.2847-9.17872 9.76562-8.62451 9.76562-7.85449C9.76562-5.57763 12.7954-4.24902 15.3823-4.24902Z"/>
   <path class="monochrome-2 multicolor-2:secondaryLabelColor hierarchical-2:secondary SFSymbolsPreviewWireframe" d="M29.1338-34.0962L82.1294-34.0962C82.7657-34.0962 83.2417-34.5688 83.2417-35.2051C83.2417-35.8413 82.7657-36.314 82.1294-36.314L29.1338-36.314C28.4976-36.314 28.0249-35.8413 28.0249-35.2051C28.0249-34.5688 28.4976-34.0962 29.1338-34.0962Z" data-clipstroke-keyframes="0 0 0 0.9695065 0.0009160042 0 1 0.4685049 0.49949622"/>
   <path class="monochrome-3 multicolor-3:labelColor hierarchical-3:primary SFSymbolsPreviewWireframe" d="M11.2466-27.4517L20.2573-27.4517C20.9263-27.4517 21.4419-27.9605 21.4419-28.6328C21.4419-29.354 20.9717-29.8628 20.2573-29.8628L14.0303-29.8628L14.0303-29.9605L17.5991-33.3032C20.1904-35.7207 20.9048-36.7632 20.9048-38.6074C20.9048-41.2329 18.6734-43.0635 15.3301-43.0635C12.1606-43.0635 9.97119-41.1592 9.97119-39.0742C9.97119-38.1226 10.5288-37.7534 11.2217-37.7534C11.919-37.7534 12.3721-38.001 12.6402-38.7891C12.999-39.895 13.9971-40.5615 15.3369-40.5615C16.7744-40.5615 17.7793-39.6509 17.7793-38.4439C17.7793-37.2051 17.2036-36.4238 15.3379-34.6763L10.5322-30.2637C10.0234-29.8071 9.81787-29.3472 9.81787-28.7861C9.81787-27.9673 10.3335-27.4517 11.2466-27.4517Z"/>
   <path class="monochrome-4 multicolor-4:secondaryLabelColor hierarchical-4:secondary SFSymbolsPreviewWireframe" d="M29.1338-56.5244L82.1294-56.5244C82.7657-56.5244 83.2417-56.9517 83.2417-57.6333C83.2417-58.2695 82.7657-58.6968 82.1294-58.6968L29.1338-58.6968C28.4976-58.6968 28.0249-58.2695 28.0249-57.6333C28.0249-56.9517 28.4976-56.5244 29.1338-56.5244Z" data-clipstroke-keyframes="0 0 0 0.969669 0.0009162426 0 1 0.46964872 0.5004785"/>
   <path class="monochrome-5 multicolor-5:labelColor hierarchical-5:primary SFSymbolsPreviewWireframe" d="M16.5498-49.6528C17.5674-49.6528 18.1875-50.2559 18.1875-51.2974L18.1875-63.7837C18.1875-64.9512 17.4663-65.6621 16.2988-65.6621C15.2881-65.6621 14.7725-65.2647 14.0649-64.7661L11.2886-62.8164C10.5073-62.2793 10.2041-61.9273 10.2041-61.3208C10.2041-60.5645 10.7617-60.0625 11.4624-60.0625C11.9053-60.0625 12.1494-60.1148 12.6934-60.5542L14.8565-62.2188L14.9507-62.2188L14.9507-51.2974C14.9507-50.2559 15.5254-49.6528 16.5498-49.6528Z"/>
  </g>
 </g>
</svg>
